<svg xmlns="http://www.w3.org/2000/svg" xmlns:xlink="http://www.w3.org/1999/xlink" contentStyleType="text/css" height="391px" preserveAspectRatio="none" style="width:280px;height:391px;background:#FFFFFF;" version="1.1" viewBox="0 0 280 391" width="280px" zoomAndPan="magnify"><defs/><g><!--class Pedido--><g id="elem_Pedido"><rect codeLine="3" fill="#F1F1F1" height="66.6211" id="Pedido" rx="2.5" ry="2.5" style="stroke:#181818;stroke-width:0.5;" width="75.5928" x="19" y="7"/><ellipse cx="34" cy="23" fill="#ADD1B2" rx="11" ry="11" style="stroke:#181818;stroke-width:1.0;"/><path d="M36.7656,18.875 Q36.9219,18.6563 37.1094,18.5469 Q37.2969,18.4375 37.5156,18.4375 Q37.8906,18.4375 38.125,18.7031 Q38.3594,18.9531 38.3594,19.5625 L38.3594,21.0156 Q38.3594,21.625 38.125,21.8906 Q37.8906,22.1563 37.5156,22.1563 Q37.1719,22.1563 36.9688,21.9531 Q36.7656,21.7656 36.6563,21.25 Q36.6094,20.8906 36.4219,20.7031 Q36.0938,20.3281 35.4844,20.1094 Q34.875,19.8906 34.25,19.8906 Q33.4844,19.8906 32.8438,20.2188 Q32.2188,20.5469 31.7188,21.2969 Q31.2344,22.0469 31.2344,23.0781 L31.2344,24.1719 Q31.2344,25.4063 32.125,26.2344 Q33.0156,27.0469 34.6094,27.0469 Q35.5469,27.0469 36.2031,26.7969 Q36.5938,26.6406 37.0156,26.2031 Q37.2813,25.9375 37.4219,25.8594 Q37.5781,25.7813 37.7813,25.7813 Q38.1094,25.7813 38.3594,26.0469 Q38.625,26.2969 38.625,26.6406 Q38.625,26.9844 38.2813,27.3906 Q37.7813,27.9688 36.9844,28.2969 Q35.9063,28.75 34.6094,28.75 Q33.0938,28.75 31.8906,28.125 Q30.9063,27.625 30.2188,26.5625 Q29.5313,25.4844 29.5313,24.2031 L29.5313,23.0469 Q29.5313,21.7188 30.1406,20.5781 Q30.7656,19.4219 31.8594,18.8125 Q32.9531,18.1875 34.1875,18.1875 Q34.9219,18.1875 35.5625,18.3594 Q36.2188,18.5156 36.7656,18.875 Z " fill="#000000"/><text fill="#000000" font-family="sans-serif" font-size="14" lengthAdjust="spacing" textLength="43.5928" x="48" y="28.7969">Pedido</text><line style="stroke:#181818;stroke-width:0.5;" x1="20" x2="93.5928" y1="39" y2="39"/><text fill="#000000" font-family="sans-serif" font-size="14" lengthAdjust="spacing" textLength="41.6377" x="25" y="58.1074">+id: int</text><line style="stroke:#181818;stroke-width:0.5;" x1="20" x2="93.5928" y1="65.6211" y2="65.6211"/></g><!--class Produto--><g id="elem_Produto"><rect codeLine="7" fill="#F1F1F1" height="85.2422" id="Produto" rx="2.5" ry="2.5" style="stroke:#181818;stroke-width:0.5;" width="99.5479" x="7" y="299"/><ellipse cx="30.3312" cy="315" fill="#ADD1B2" rx="11" ry="11" style="stroke:#181818;stroke-width:1.0;"/><path d="M33.0968,310.875 Q33.253,310.6563 33.4405,310.5469 Q33.628,310.4375 33.8468,310.4375 Q34.2218,310.4375 34.4562,310.7031 Q34.6905,310.9531 34.6905,311.5625 L34.6905,313.0156 Q34.6905,313.625 34.4562,313.8906 Q34.2218,314.1563 33.8468,314.1563 Q33.503,314.1563 33.2999,313.9531 Q33.0968,313.7656 32.9874,313.25 Q32.9405,312.8906 32.753,312.7031 Q32.4249,312.3281 31.8155,312.1094 Q31.2062,311.8906 30.5812,311.8906 Q29.8155,311.8906 29.1749,312.2188 Q28.5499,312.5469 28.0499,313.2969 Q27.5655,314.0469 27.5655,315.0781 L27.5655,316.1719 Q27.5655,317.4063 28.4562,318.2344 Q29.3468,319.0469 30.9405,319.0469 Q31.878,319.0469 32.5343,318.7969 Q32.9249,318.6406 33.3468,318.2031 Q33.6124,317.9375 33.753,317.8594 Q33.9093,317.7813 34.1124,317.7813 Q34.4405,317.7813 34.6905,318.0469 Q34.9562,318.2969 34.9562,318.6406 Q34.9562,318.9844 34.6124,319.3906 Q34.1124,319.9688 33.3155,320.2969 Q32.2374,320.75 30.9405,320.75 Q29.4249,320.75 28.2218,320.125 Q27.2374,319.625 26.5499,318.5625 Q25.8624,317.4844 25.8624,316.2031 L25.8624,315.0469 Q25.8624,313.7188 26.4718,312.5781 Q27.0968,311.4219 28.1905,310.8125 Q29.2843,310.1875 30.5187,310.1875 Q31.253,310.1875 31.8937,310.3594 Q32.5499,310.5156 33.0968,310.875 Z " fill="#000000"/><text fill="#000000" font-family="sans-serif" font-size="14" lengthAdjust="spacing" textLength="49.0342" x="46.1825" y="320.7969">Produto</text><line style="stroke:#181818;stroke-width:0.5;" x1="8" x2="105.5479" y1="331" y2="331"/><text fill="#000000" font-family="sans-serif" font-size="14" lengthAdjust="spacing" textLength="41.6377" x="13" y="350.1074">+id: int</text><text fill="#000000" font-family="sans-serif" font-size="14" lengthAdjust="spacing" textLength="87.5479" x="13" y="368.7285">+nome: String</text><line style="stroke:#181818;stroke-width:0.5;" x1="8" x2="105.5479" y1="376.2422" y2="376.2422"/></g><!--class ItemPedido--><g id="elem_ItemPedido"><rect codeLine="12" fill="#F1F1F1" height="85.2422" id="ItemPedido" rx="2.5" ry="2.5" style="stroke:#181818;stroke-width:0.5;" width="178.9336" x="94.5" y="153"/><ellipse cx="144.3066" cy="169" fill="#ADD1B2" rx="11" ry="11" style="stroke:#181818;stroke-width:1.0;"/><path d="M147.0723,164.875 Q147.2285,164.6563 147.416,164.5469 Q147.6035,164.4375 147.8223,164.4375 Q148.1973,164.4375 148.4316,164.7031 Q148.666,164.9531 148.666,165.5625 L148.666,167.0156 Q148.666,167.625 148.4316,167.8906 Q148.1973,168.1563 147.8223,168.1563 Q147.4785,168.1563 147.2754,167.9531 Q147.0723,167.7656 146.9629,167.25 Q146.916,166.8906 146.7285,166.7031 Q146.4004,166.3281 145.791,166.1094 Q145.1816,165.8906 144.5566,165.8906 Q143.791,165.8906 143.1504,166.2188 Q142.5254,166.5469 142.0254,167.2969 Q141.541,168.0469 141.541,169.0781 L141.541,170.1719 Q141.541,171.4063 142.4316,172.2344 Q143.3223,173.0469 144.916,173.0469 Q145.8535,173.0469 146.5098,172.7969 Q146.9004,172.6406 147.3223,172.2031 Q147.5879,171.9375 147.7285,171.8594 Q147.8848,171.7813 148.0879,171.7813 Q148.416,171.7813 148.666,172.0469 Q148.9316,172.2969 148.9316,172.6406 Q148.9316,172.9844 148.5879,173.3906 Q148.0879,173.9688 147.291,174.2969 Q146.2129,174.75 144.916,174.75 Q143.4004,174.75 142.1973,174.125 Q141.2129,173.625 140.5254,172.5625 Q139.8379,171.4844 139.8379,170.2031 L139.8379,169.0469 Q139.8379,167.7188 140.4473,166.5781 Q141.0723,165.4219 142.166,164.8125 Q143.2598,164.1875 144.4941,164.1875 Q145.2285,164.1875 145.8691,164.3594 Q146.5254,164.5156 147.0723,164.875 Z " fill="#000000"/><text fill="#000000" font-family="sans-serif" font-size="14" lengthAdjust="spacing" textLength="70.8203" x="164.8066" y="174.7969">ItemPedido</text><line style="stroke:#181818;stroke-width:0.5;" x1="95.5" x2="272.4336" y1="185" y2="185"/><text fill="#000000" font-family="sans-serif" font-size="14" lengthAdjust="spacing" textLength="100.0303" x="100.5" y="204.1074">+quantidade: int</text><line style="stroke:#181818;stroke-width:0.5;" x1="95.5" x2="272.4336" y1="211.6211" y2="211.6211"/><text fill="#000000" font-family="sans-serif" font-size="14" lengthAdjust="spacing" textLength="166.9336" x="100.5" y="230.7285">+calcularSubtotal(): double</text></g><ellipse cx="57" cy="195.5" fill="#181818" rx="2" ry="2" style="stroke:#181818;stroke-width:1.0;"/><!--reverse link Pedido to apoint6--><g id="link_Pedido_apoint6"><path d="M57,86.32 C57,128.12 57,184.07 57,193.42 " fill="none" id="Pedido-backto-apoint6" style="stroke:#181818;stroke-width:1.0;"/><polygon fill="#181818" points="57,74.32,53,80.32,57,86.32,61,80.32,57,74.32" style="stroke:#181818;stroke-width:1.0;"/><polygon fill="#000000" points="62,118.6455,64.9389,109.6004,59.0611,109.6004,62,118.6455" style="stroke:#000000;stroke-width:1.0;"/><text fill="#000000" font-family="sans-serif" font-size="13" lengthAdjust="spacing" textLength="42.6309" x="71" y="119.0283">contem</text><text fill="#000000" font-family="sans-serif" font-size="13" lengthAdjust="spacing" textLength="19.5127" x="28.8639" y="95.6796">0..*</text></g><!--link apoint6 to Produto--><g id="link_apoint6_Produto"><path d="M57,197.74 C57,206.51 57,259.77 57,298.68 " fill="none" id="apoint6-Produto" style="stroke:#181818;stroke-width:1.0;"/><text fill="#000000" font-family="sans-serif" font-size="13" lengthAdjust="spacing" textLength="19.5127" x="29.1004" y="287.8537">1..*</text></g><!--link apoint6 to ItemPedido--><g id="link_apoint6_ItemPedido"><path d="M59.48,195.5 C70.99,195.5 82.5,195.5 94.02,195.5 " fill="none" id="apoint6-ItemPedido" style="stroke:#181818;stroke-width:1.0;stroke-dasharray:7.0,7.0;"/></g><!--SRC=[NO-z3e9048JxUugHHa0XsbAOMDAPy0GBTp4NxmUFlKADxouggB7RpJSpExjSz86Ebc3euYDZi8h9aHXEslKKoA8pD0nxvg3RoAhkl6lqLM4ZNW079RNqk0bWfMK5xLZSnGo3bv7_w3WwRrM5Pinqnw-wPcL_uywH76j9KdsC7Pak6WfDRDapcJIh87riZNh6JEPaKvOva20l2YJRQPcwL1W_60zX9zAtVZsZ36NvK-81]--></g></svg>