<svg xmlns="http://www.w3.org/2000/svg" xmlns:xlink="http://www.w3.org/1999/xlink" contentStyleType="text/css" height="188px" preserveAspectRatio="none" style="width:373px;height:188px;background:#FFFFFF;" version="1.1" viewBox="0 0 373 188" width="373px" zoomAndPan="magnify"><defs/><g><!--class Funcionario--><g id="elem_Funcionario"><rect codeLine="3" fill="#F1F1F1" height="66.6211" id="Funcionario" rx="2.5" ry="2.5" style="stroke:#181818;stroke-width:0.5;" width="171.1406" x="100" y="12"/><ellipse cx="144.7446" cy="28" fill="#A9DCDF" rx="11" ry="11" style="stroke:#181818;stroke-width:1.0;"/><path d="M146.9321,29.7656 L142.7915,29.7656 L142.3696,30.7969 L142.7915,30.7969 Q143.4009,30.7969 143.6665,31.0313 Q143.9321,31.2656 143.9321,31.6563 Q143.9321,32.0313 143.6665,32.2656 Q143.4009,32.5 142.7915,32.5 L140.4946,32.5 Q139.8853,32.5 139.6353,32.2656 Q139.3696,32.0313 139.3696,31.6406 Q139.3696,31.2656 139.6509,31.0313 Q139.9165,30.7813 140.5415,30.7969 L143.2134,24.1406 L142.104,24.1406 Q141.4946,24.1406 141.229,23.9063 Q140.9634,23.6719 140.9634,23.2813 Q140.9634,22.9063 141.229,22.6719 Q141.4946,22.4375 142.104,22.4375 L145.7759,22.4375 L149.1665,30.7969 Q149.7603,30.7969 149.9478,30.9375 Q150.3384,31.2031 150.3384,31.6563 Q150.3384,32.0313 150.0728,32.2656 Q149.8228,32.5 149.2134,32.5 L146.9165,32.5 Q146.3071,32.5 146.0415,32.2656 Q145.7759,32.0313 145.7759,31.6406 Q145.7759,31.2656 146.0415,31.0313 Q146.3071,30.7969 146.9165,30.7969 L147.3384,30.7969 L146.9321,29.7656 Z M146.2134,28.0625 L144.854,24.6875 L143.479,28.0625 L146.2134,28.0625 Z " fill="#000000"/><text fill="#000000" font-family="sans-serif" font-size="14" font-style="italic" lengthAdjust="spacing" textLength="73.1514" x="165.2446" y="33.7969">Funcionario</text><line style="stroke:#181818;stroke-width:0.5;" x1="101" x2="270.1406" y1="44" y2="44"/><line style="stroke:#181818;stroke-width:0.5;" x1="101" x2="270.1406" y1="52" y2="52"/><text fill="#000000" font-family="sans-serif" font-size="14" lengthAdjust="spacing" textLength="159.1406" x="106" y="71.1074">+calcularSalario(): double</text></g><!--class Gerente--><g id="elem_Gerente"><rect codeLine="7" fill="#F1F1F1" height="66.6211" id="Gerente" rx="2.5" ry="2.5" style="stroke:#181818;stroke-width:0.5;" width="171.1406" x="6" y="115"/><ellipse cx="62.0273" cy="131" fill="#ADD1B2" rx="11" ry="11" style="stroke:#181818;stroke-width:1.0;"/><path d="M64.793,126.875 Q64.9492,126.6563 65.1367,126.5469 Q65.3242,126.4375 65.543,126.4375 Q65.918,126.4375 66.1523,126.7031 Q66.3867,126.9531 66.3867,127.5625 L66.3867,129.0156 Q66.3867,129.625 66.1523,129.8906 Q65.918,130.1563 65.543,130.1563 Q65.1992,130.1563 64.9961,129.9531 Q64.793,129.7656 64.6836,129.25 Q64.6367,128.8906 64.4492,128.7031 Q64.1211,128.3281 63.5117,128.1094 Q62.9023,127.8906 62.2773,127.8906 Q61.5117,127.8906 60.8711,128.2188 Q60.2461,128.5469 59.7461,129.2969 Q59.2617,130.0469 59.2617,131.0781 L59.2617,132.1719 Q59.2617,133.4063 60.1523,134.2344 Q61.043,135.0469 62.6367,135.0469 Q63.5742,135.0469 64.2305,134.7969 Q64.6211,134.6406 65.043,134.2031 Q65.3086,133.9375 65.4492,133.8594 Q65.6055,133.7813 65.8086,133.7813 Q66.1367,133.7813 66.3867,134.0469 Q66.6523,134.2969 66.6523,134.6406 Q66.6523,134.9844 66.3086,135.3906 Q65.8086,135.9688 65.0117,136.2969 Q63.9336,136.75 62.6367,136.75 Q61.1211,136.75 59.918,136.125 Q58.9336,135.625 58.2461,134.5625 Q57.5586,133.4844 57.5586,132.2031 L57.5586,131.0469 Q57.5586,129.7188 58.168,128.5781 Q58.793,127.4219 59.8867,126.8125 Q60.9805,126.1875 62.2148,126.1875 Q62.9492,126.1875 63.5898,126.3594 Q64.2461,126.5156 64.793,126.875 Z " fill="#000000"/><text fill="#000000" font-family="sans-serif" font-size="14" lengthAdjust="spacing" textLength="50.5859" x="82.5273" y="136.7969">Gerente</text><line style="stroke:#181818;stroke-width:0.5;" x1="7" x2="176.1406" y1="147" y2="147"/><line style="stroke:#181818;stroke-width:0.5;" x1="7" x2="176.1406" y1="155" y2="155"/><text fill="#000000" font-family="sans-serif" font-size="14" lengthAdjust="spacing" textLength="159.1406" x="12" y="174.1074">+calcularSalario(): double</text></g><!--class Vendedor--><g id="elem_Vendedor"><rect codeLine="11" fill="#F1F1F1" height="66.6211" id="Vendedor" rx="2.5" ry="2.5" style="stroke:#181818;stroke-width:0.5;" width="171.1406" x="195" y="115"/><ellipse cx="245.9619" cy="131" fill="#ADD1B2" rx="11" ry="11" style="stroke:#181818;stroke-width:1.0;"/><path d="M248.7275,126.875 Q248.8838,126.6563 249.0713,126.5469 Q249.2588,126.4375 249.4775,126.4375 Q249.8525,126.4375 250.0869,126.7031 Q250.3213,126.9531 250.3213,127.5625 L250.3213,129.0156 Q250.3213,129.625 250.0869,129.8906 Q249.8525,130.1563 249.4775,130.1563 Q249.1338,130.1563 248.9307,129.9531 Q248.7275,129.7656 248.6182,129.25 Q248.5713,128.8906 248.3838,128.7031 Q248.0557,128.3281 247.4463,128.1094 Q246.8369,127.8906 246.2119,127.8906 Q245.4463,127.8906 244.8057,128.2188 Q244.1807,128.5469 243.6807,129.2969 Q243.1963,130.0469 243.1963,131.0781 L243.1963,132.1719 Q243.1963,133.4063 244.0869,134.2344 Q244.9775,135.0469 246.5713,135.0469 Q247.5088,135.0469 248.165,134.7969 Q248.5557,134.6406 248.9775,134.2031 Q249.2432,133.9375 249.3838,133.8594 Q249.54,133.7813 249.7432,133.7813 Q250.0713,133.7813 250.3213,134.0469 Q250.5869,134.2969 250.5869,134.6406 Q250.5869,134.9844 250.2432,135.3906 Q249.7432,135.9688 248.9463,136.2969 Q247.8682,136.75 246.5713,136.75 Q245.0557,136.75 243.8525,136.125 Q242.8682,135.625 242.1807,134.5625 Q241.4932,133.4844 241.4932,132.2031 L241.4932,131.0469 Q241.4932,129.7188 242.1025,128.5781 Q242.7275,127.4219 243.8213,126.8125 Q244.915,126.1875 246.1494,126.1875 Q246.8838,126.1875 247.5244,126.3594 Q248.1807,126.5156 248.7275,126.875 Z " fill="#000000"/><text fill="#000000" font-family="sans-serif" font-size="14" lengthAdjust="spacing" textLength="60.7168" x="266.4619" y="136.7969">Vendedor</text><line style="stroke:#181818;stroke-width:0.5;" x1="196" x2="365.1406" y1="147" y2="147"/><line style="stroke:#181818;stroke-width:0.5;" x1="196" x2="365.1406" y1="155" y2="155"/><text fill="#000000" font-family="sans-serif" font-size="14" lengthAdjust="spacing" textLength="159.1406" x="201" y="174.1074">+calcularSalario(): double</text></g><polygon fill="none" points="155.2404,79.013,138.5852,88.1016,147.3694,96.277,155.2404,79.013" style="stroke:#181818;stroke-width:1.0;"/><path d="M142.9773,92.1893 C132.3505,103.6074 132.6736,103.2603 122.0252,114.7017 " fill="none" style="stroke:#181818;stroke-width:1.0;"/><polygon fill="none" points="216.0815,79.013,224.0436,96.2352,232.7845,88.0136,216.0815,79.013" style="stroke:#181818;stroke-width:1.0;"/><path d="M228.414,92.1244 C239.1538,103.5425 238.8884,103.2603 249.6501,114.7017 " fill="none" style="stroke:#181818;stroke-width:1.0;"/><!--SRC=[dOon2W8n40NxVCNQAJRMTZQAzO7zIx98CBTxR3PmAlwxolt1jSFCR2R3VGHLFBKxjP4TWj0UHIOOHaeLhPtShSJkV4qgGtan7G9YSqFonQ1pbrHKO4Nf7OZs2JNr2XjG_t2xErBM7Yk7JmXBSs5ZSIQUdIMlUzn-9MUrLPCl]--></g></svg>