<svg xmlns="http://www.w3.org/2000/svg" xmlns:xlink="http://www.w3.org/1999/xlink" contentStyleType="text/css" height="180px" preserveAspectRatio="none" style="width:227px;height:180px;background:#FFFFFF;" version="1.1" viewBox="0 0 227 180" width="227px" zoomAndPan="magnify"><defs/><g><!--class Produto--><g id="elem_Produto"><rect codeLine="2" fill="#F1F1F1" height="159.7266" id="Produto" rx="2.5" ry="2.5" style="stroke:#181818;stroke-width:0.5;" width="206.9404" x="7" y="7"/><ellipse cx="81.7031" cy="23" fill="#ADD1B2" rx="11" ry="11" style="stroke:#181818;stroke-width:1.0;"/><path d="M84.4688,18.875 Q84.625,18.6563 84.8125,18.5469 Q85,18.4375 85.2188,18.4375 Q85.5938,18.4375 85.8281,18.7031 Q86.0625,18.9531 86.0625,19.5625 L86.0625,21.0156 Q86.0625,21.625 85.8281,21.8906 Q85.5938,22.1563 85.2188,22.1563 Q84.875,22.1563 84.6719,21.9531 Q84.4688,21.7656 84.3594,21.25 Q84.3125,20.8906 84.125,20.7031 Q83.7969,20.3281 83.1875,20.1094 Q82.5781,19.8906 81.9531,19.8906 Q81.1875,19.8906 80.5469,20.2188 Q79.9219,20.5469 79.4219,21.2969 Q78.9375,22.0469 78.9375,23.0781 L78.9375,24.1719 Q78.9375,25.4063 79.8281,26.2344 Q80.7188,27.0469 82.3125,27.0469 Q83.25,27.0469 83.9063,26.7969 Q84.2969,26.6406 84.7188,26.2031 Q84.9844,25.9375 85.125,25.8594 Q85.2813,25.7813 85.4844,25.7813 Q85.8125,25.7813 86.0625,26.0469 Q86.3281,26.2969 86.3281,26.6406 Q86.3281,26.9844 85.9844,27.3906 Q85.4844,27.9688 84.6875,28.2969 Q83.6094,28.75 82.3125,28.75 Q80.7969,28.75 79.5938,28.125 Q78.6094,27.625 77.9219,26.5625 Q77.2344,25.4844 77.2344,24.2031 L77.2344,23.0469 Q77.2344,21.7188 77.8438,20.5781 Q78.4688,19.4219 79.5625,18.8125 Q80.6563,18.1875 81.8906,18.1875 Q82.625,18.1875 83.2656,18.3594 Q83.9219,18.5156 84.4688,18.875 Z " fill="#000000"/><text fill="#000000" font-family="sans-serif" font-size="14" lengthAdjust="spacing" textLength="49.0342" x="102.2031" y="28.7969">Produto</text><line style="stroke:#181818;stroke-width:0.5;" x1="8" x2="212.9404" y1="39" y2="39"/><text fill="#000000" font-family="sans-serif" font-size="14" lengthAdjust="spacing" textLength="87.9238" x="13" y="58.1074">-nome : String</text><text fill="#000000" font-family="sans-serif" font-size="14" lengthAdjust="spacing" textLength="93.3926" x="13" y="76.7285">-preco : double</text><line style="stroke:#181818;stroke-width:0.5;" x1="8" x2="212.9404" y1="84.2422" y2="84.2422"/><text fill="#000000" font-family="sans-serif" font-size="14" lengthAdjust="spacing" textLength="122.5479" x="13" y="103.3496">+getNome() : String</text><text fill="#000000" font-family="sans-serif" font-size="14" lengthAdjust="spacing" textLength="190.2441" x="13" y="121.9707">+setNome(nome: String) : void</text><text fill="#000000" font-family="sans-serif" font-size="14" lengthAdjust="spacing" textLength="127.2441" x="13" y="140.5918">+getPreco() : double</text><text fill="#000000" font-family="sans-serif" font-size="14" lengthAdjust="spacing" textLength="194.9404" x="13" y="159.2129">+setPreco(preco: double) : void</text></g><!--SRC=[JOqn3eCm40HxNd5b449AdOuo3KBY1SO-8IlWGxvp2X1_ZstX9Etix2w_hDkKLoleHJ5t8jvEGV2foOrsHxXNEO31amb2S5G0hQCLuG5ZbDsSmEPHKoI6mhHW9CsCqaVhLlzx3Lyq3HIUZ3TPSxM6D9Lhlp4kEF-Kv5iyFm00]--></g></svg>