<svg xmlns="http://www.w3.org/2000/svg" xmlns:xlink="http://www.w3.org/1999/xlink" contentStyleType="text/css" height="188px" preserveAspectRatio="none" style="width:276px;height:188px;background:#FFFFFF;" version="1.1" viewBox="0 0 276 188" width="276px" zoomAndPan="magnify"><defs/><g><!--class Animal--><g id="elem_Animal"><rect codeLine="3" fill="#F1F1F1" height="66.6211" id="Animal" rx="2.5" ry="2.5" style="stroke:#181818;stroke-width:0.5;" width="122.8721" x="76" y="12"/><ellipse cx="112.6356" cy="28" fill="#A9DCDF" rx="11" ry="11" style="stroke:#181818;stroke-width:1.0;"/><path d="M114.8231,29.7656 L110.6825,29.7656 L110.2606,30.7969 L110.6825,30.7969 Q111.2918,30.7969 111.5575,31.0313 Q111.8231,31.2656 111.8231,31.6563 Q111.8231,32.0313 111.5575,32.2656 Q111.2918,32.5 110.6825,32.5 L108.3856,32.5 Q107.7762,32.5 107.5262,32.2656 Q107.2606,32.0313 107.2606,31.6406 Q107.2606,31.2656 107.5418,31.0313 Q107.8075,30.7813 108.4325,30.7969 L111.1043,24.1406 L109.995,24.1406 Q109.3856,24.1406 109.12,23.9063 Q108.8543,23.6719 108.8543,23.2813 Q108.8543,22.9063 109.12,22.6719 Q109.3856,22.4375 109.995,22.4375 L113.6668,22.4375 L117.0575,30.7969 Q117.6512,30.7969 117.8387,30.9375 Q118.2293,31.2031 118.2293,31.6563 Q118.2293,32.0313 117.9637,32.2656 Q117.7137,32.5 117.1043,32.5 L114.8075,32.5 Q114.1981,32.5 113.9325,32.2656 Q113.6668,32.0313 113.6668,31.6406 Q113.6668,31.2656 113.9325,31.0313 Q114.1981,30.7969 114.8075,30.7969 L115.2293,30.7969 L114.8231,29.7656 Z M114.1043,28.0625 L112.745,24.6875 L111.37,28.0625 L114.1043,28.0625 Z " fill="#000000"/><text fill="#000000" font-family="sans-serif" font-size="14" font-style="italic" lengthAdjust="spacing" textLength="42.793" x="131.4435" y="33.7969">Animal</text><line style="stroke:#181818;stroke-width:0.5;" x1="77" x2="197.8721" y1="44" y2="44"/><line style="stroke:#181818;stroke-width:0.5;" x1="77" x2="197.8721" y1="52" y2="52"/><text fill="#000000" font-family="sans-serif" font-size="14" lengthAdjust="spacing" textLength="110.8721" x="82" y="71.1074">+fazerSom(): void</text></g><!--class Cachorro--><g id="elem_Cachorro"><rect codeLine="7" fill="#F1F1F1" height="66.6211" id="Cachorro" rx="2.5" ry="2.5" style="stroke:#181818;stroke-width:0.5;" width="122.8721" x="6" y="115"/><ellipse cx="35.9818" cy="131" fill="#ADD1B2" rx="11" ry="11" style="stroke:#181818;stroke-width:1.0;"/><path d="M38.7475,126.875 Q38.9037,126.6563 39.0912,126.5469 Q39.2787,126.4375 39.4975,126.4375 Q39.8725,126.4375 40.1068,126.7031 Q40.3412,126.9531 40.3412,127.5625 L40.3412,129.0156 Q40.3412,129.625 40.1068,129.8906 Q39.8725,130.1563 39.4975,130.1563 Q39.1537,130.1563 38.9506,129.9531 Q38.7475,129.7656 38.6381,129.25 Q38.5912,128.8906 38.4037,128.7031 Q38.0756,128.3281 37.4662,128.1094 Q36.8568,127.8906 36.2318,127.8906 Q35.4662,127.8906 34.8256,128.2188 Q34.2006,128.5469 33.7006,129.2969 Q33.2162,130.0469 33.2162,131.0781 L33.2162,132.1719 Q33.2162,133.4063 34.1068,134.2344 Q34.9975,135.0469 36.5912,135.0469 Q37.5287,135.0469 38.185,134.7969 Q38.5756,134.6406 38.9975,134.2031 Q39.2631,133.9375 39.4037,133.8594 Q39.56,133.7813 39.7631,133.7813 Q40.0912,133.7813 40.3412,134.0469 Q40.6068,134.2969 40.6068,134.6406 Q40.6068,134.9844 40.2631,135.3906 Q39.7631,135.9688 38.9662,136.2969 Q37.8881,136.75 36.5912,136.75 Q35.0756,136.75 33.8725,136.125 Q32.8881,135.625 32.2006,134.5625 Q31.5131,133.4844 31.5131,132.2031 L31.5131,131.0469 Q31.5131,129.7188 32.1225,128.5781 Q32.7475,127.4219 33.8412,126.8125 Q34.935,126.1875 36.1693,126.1875 Q36.9037,126.1875 37.5443,126.3594 Q38.2006,126.5156 38.7475,126.875 Z " fill="#000000"/><text fill="#000000" font-family="sans-serif" font-size="14" lengthAdjust="spacing" textLength="57.5791" x="53.3111" y="136.7969">Cachorro</text><line style="stroke:#181818;stroke-width:0.5;" x1="7" x2="127.8721" y1="147" y2="147"/><line style="stroke:#181818;stroke-width:0.5;" x1="7" x2="127.8721" y1="155" y2="155"/><text fill="#000000" font-family="sans-serif" font-size="14" lengthAdjust="spacing" textLength="110.8721" x="12" y="174.1074">+fazerSom(): void</text></g><!--class Gato--><g id="elem_Gato"><rect codeLine="11" fill="#F1F1F1" height="66.6211" id="Gato" rx="2.5" ry="2.5" style="stroke:#181818;stroke-width:0.5;" width="122.8721" x="147" y="115"/><ellipse cx="189.2342" cy="131" fill="#ADD1B2" rx="11" ry="11" style="stroke:#181818;stroke-width:1.0;"/><path d="M191.9999,126.875 Q192.1561,126.6563 192.3436,126.5469 Q192.5311,126.4375 192.7499,126.4375 Q193.1249,126.4375 193.3592,126.7031 Q193.5936,126.9531 193.5936,127.5625 L193.5936,129.0156 Q193.5936,129.625 193.3592,129.8906 Q193.1249,130.1563 192.7499,130.1563 Q192.4061,130.1563 192.203,129.9531 Q191.9999,129.7656 191.8905,129.25 Q191.8436,128.8906 191.6561,128.7031 Q191.328,128.3281 190.7186,128.1094 Q190.1092,127.8906 189.4842,127.8906 Q188.7186,127.8906 188.078,128.2188 Q187.453,128.5469 186.953,129.2969 Q186.4686,130.0469 186.4686,131.0781 L186.4686,132.1719 Q186.4686,133.4063 187.3592,134.2344 Q188.2499,135.0469 189.8436,135.0469 Q190.7811,135.0469 191.4374,134.7969 Q191.828,134.6406 192.2499,134.2031 Q192.5155,133.9375 192.6561,133.8594 Q192.8124,133.7813 193.0155,133.7813 Q193.3436,133.7813 193.5936,134.0469 Q193.8592,134.2969 193.8592,134.6406 Q193.8592,134.9844 193.5155,135.3906 Q193.0155,135.9688 192.2186,136.2969 Q191.1405,136.75 189.8436,136.75 Q188.328,136.75 187.1249,136.125 Q186.1405,135.625 185.453,134.5625 Q184.7655,133.4844 184.7655,132.2031 L184.7655,131.0469 Q184.7655,129.7188 185.3749,128.5781 Q185.9999,127.4219 187.0936,126.8125 Q188.1874,126.1875 189.4217,126.1875 Q190.1561,126.1875 190.7967,126.3594 Q191.453,126.5156 191.9999,126.875 Z " fill="#000000"/><text fill="#000000" font-family="sans-serif" font-size="14" lengthAdjust="spacing" textLength="30.3516" x="209.2863" y="136.7969">Gato</text><line style="stroke:#181818;stroke-width:0.5;" x1="148" x2="268.8721" y1="147" y2="147"/><line style="stroke:#181818;stroke-width:0.5;" x1="148" x2="268.8721" y1="155" y2="155"/><text fill="#000000" font-family="sans-serif" font-size="14" lengthAdjust="spacing" textLength="110.8721" x="153" y="174.1074">+fazerSom(): void</text></g><polygon fill="none" points="114.9662,79.013,99.7815,90.3894,109.6442,97.225,114.9662,79.013" style="stroke:#181818;stroke-width:1.0;"/><path d="M104.7129,93.8072 C96.7993,105.2252 98.1612,103.2603 90.2315,114.7017 " fill="none" style="stroke:#181818;stroke-width:1.0;"/><polygon fill="none" points="160.3557,79.013,165.7988,97.1891,175.6159,90.288,160.3557,79.013" style="stroke:#181818;stroke-width:1.0;"/><path d="M170.7073,93.7386 C178.7339,105.1567 177.4008,103.2603 185.4437,114.7017 " fill="none" style="stroke:#181818;stroke-width:1.0;"/><!--SRC=[ZSin3i8m30NGtQSm6uY5kLl5W9XxWj_KG4GILuvRGIlkpj0BT7_lC1gU6PpmrScvPd4KK7t7CiAGEIJKshfRx2UNUz3InKNuGkYh6u9lWjiICnAln7n-O17hD1zF3SyQ1_eHRUgAy58pPVcub65lky7tbZy0]--></g></svg>