<svg xmlns="http://www.w3.org/2000/svg" xmlns:xlink="http://www.w3.org/1999/xlink" contentStyleType="text/css" height="207px" preserveAspectRatio="none" style="width:113px;height:207px;background:#FFFFFF;" version="1.1" viewBox="0 0 113 207" width="113px" zoomAndPan="magnify"><defs/><g><!--class Pedido--><g id="elem_Pedido"><rect codeLine="3" fill="#F1F1F1" height="66.6211" id="Pedido" rx="2.5" ry="2.5" style="stroke:#181818;stroke-width:0.5;" width="90.21" x="12" y="7"/><ellipse cx="33.5777" cy="23" fill="#ADD1B2" rx="11" ry="11" style="stroke:#181818;stroke-width:1.0;"/><path d="M36.3434,18.875 Q36.4996,18.6563 36.6871,18.5469 Q36.8746,18.4375 37.0934,18.4375 Q37.4684,18.4375 37.7027,18.7031 Q37.9371,18.9531 37.9371,19.5625 L37.9371,21.0156 Q37.9371,21.625 37.7027,21.8906 Q37.4684,22.1563 37.0934,22.1563 Q36.7496,22.1563 36.5465,21.9531 Q36.3434,21.7656 36.234,21.25 Q36.1871,20.8906 35.9996,20.7031 Q35.6715,20.3281 35.0621,20.1094 Q34.4527,19.8906 33.8277,19.8906 Q33.0621,19.8906 32.4215,20.2188 Q31.7965,20.5469 31.2965,21.2969 Q30.8121,22.0469 30.8121,23.0781 L30.8121,24.1719 Q30.8121,25.4063 31.7027,26.2344 Q32.5934,27.0469 34.1871,27.0469 Q35.1246,27.0469 35.7809,26.7969 Q36.1715,26.6406 36.5934,26.2031 Q36.859,25.9375 36.9996,25.8594 Q37.1559,25.7813 37.359,25.7813 Q37.6871,25.7813 37.9371,26.0469 Q38.2027,26.2969 38.2027,26.6406 Q38.2027,26.9844 37.859,27.3906 Q37.359,27.9688 36.5621,28.2969 Q35.484,28.75 34.1871,28.75 Q32.6715,28.75 31.4684,28.125 Q30.484,27.625 29.7965,26.5625 Q29.109,25.4844 29.109,24.2031 L29.109,23.0469 Q29.109,21.7188 29.7184,20.5781 Q30.3434,19.4219 31.4371,18.8125 Q32.5309,18.1875 33.7652,18.1875 Q34.4996,18.1875 35.1402,18.3594 Q35.7965,18.5156 36.3434,18.875 Z " fill="#000000"/><text fill="#000000" font-family="sans-serif" font-size="14" lengthAdjust="spacing" textLength="43.5928" x="49.0395" y="28.7969">Pedido</text><line style="stroke:#181818;stroke-width:0.5;" x1="13" x2="101.21" y1="39" y2="39"/><text fill="#000000" font-family="sans-serif" font-size="14" lengthAdjust="spacing" textLength="78.21" x="18" y="58.1074">+numero: int</text><line style="stroke:#181818;stroke-width:0.5;" x1="13" x2="101.21" y1="65.6211" y2="65.6211"/></g><!--class Produto--><g id="elem_Produto"><rect codeLine="7" fill="#F1F1F1" height="66.6211" id="Produto" rx="2.5" ry="2.5" style="stroke:#181818;stroke-width:0.5;" width="99.5479" x="7" y="134"/><ellipse cx="30.3312" cy="150" fill="#ADD1B2" rx="11" ry="11" style="stroke:#181818;stroke-width:1.0;"/><path d="M33.0968,145.875 Q33.253,145.6563 33.4405,145.5469 Q33.628,145.4375 33.8468,145.4375 Q34.2218,145.4375 34.4562,145.7031 Q34.6905,145.9531 34.6905,146.5625 L34.6905,148.0156 Q34.6905,148.625 34.4562,148.8906 Q34.2218,149.1563 33.8468,149.1563 Q33.503,149.1563 33.2999,148.9531 Q33.0968,148.7656 32.9874,148.25 Q32.9405,147.8906 32.753,147.7031 Q32.4249,147.3281 31.8155,147.1094 Q31.2062,146.8906 30.5812,146.8906 Q29.8155,146.8906 29.1749,147.2188 Q28.5499,147.5469 28.0499,148.2969 Q27.5655,149.0469 27.5655,150.0781 L27.5655,151.1719 Q27.5655,152.4063 28.4562,153.2344 Q29.3468,154.0469 30.9405,154.0469 Q31.878,154.0469 32.5343,153.7969 Q32.9249,153.6406 33.3468,153.2031 Q33.6124,152.9375 33.753,152.8594 Q33.9093,152.7813 34.1124,152.7813 Q34.4405,152.7813 34.6905,153.0469 Q34.9562,153.2969 34.9562,153.6406 Q34.9562,153.9844 34.6124,154.3906 Q34.1124,154.9688 33.3155,155.2969 Q32.2374,155.75 30.9405,155.75 Q29.4249,155.75 28.2218,155.125 Q27.2374,154.625 26.5499,153.5625 Q25.8624,152.4844 25.8624,151.2031 L25.8624,150.0469 Q25.8624,148.7188 26.4718,147.5781 Q27.0968,146.4219 28.1905,145.8125 Q29.2843,145.1875 30.5187,145.1875 Q31.253,145.1875 31.8937,145.3594 Q32.5499,145.5156 33.0968,145.875 Z " fill="#000000"/><text fill="#000000" font-family="sans-serif" font-size="14" lengthAdjust="spacing" textLength="49.0342" x="46.1825" y="155.7969">Produto</text><line style="stroke:#181818;stroke-width:0.5;" x1="8" x2="105.5479" y1="166" y2="166"/><text fill="#000000" font-family="sans-serif" font-size="14" lengthAdjust="spacing" textLength="87.5479" x="13" y="185.1074">+nome: String</text><line style="stroke:#181818;stroke-width:0.5;" x1="8" x2="105.5479" y1="192.6211" y2="192.6211"/></g><!--link Pedido to Produto--><g id="link_Pedido_Produto"><path codeLine="11" d="M57,74.02 C57,92.39 57,109.29 57,127.71 " fill="none" id="Pedido-to-Produto" style="stroke:#181818;stroke-width:1.0;"/><polygon fill="#181818" points="57,133.71,61,124.71,57,128.71,53,124.71,57,133.71" style="stroke:#181818;stroke-width:1.0;"/><text fill="#000000" font-family="sans-serif" font-size="13" lengthAdjust="spacing" textLength="7.23" x="49.3783" y="95.5928">1</text><text fill="#000000" font-family="sans-serif" font-size="13" lengthAdjust="spacing" textLength="5.0591" x="51.5722" y="122.7406">*</text></g><!--SRC=[DSox2W8n48NXFaznJ2Ce2zfk8LZQ2Vi4usPOWfkP9PaKg_ZkNZ3r-Sw_tIoPfaIOQTLgA8cDX5ovHraeKy8uKobdinnlrVWogWpnmJYutu0hXnWKJmVifIREsYEAkPTh86kereGcxZ5yOZ9zoV_jZnvTTuBV-URV]--></g></svg>