<svg xmlns="http://www.w3.org/2000/svg" xmlns:xlink="http://www.w3.org/1999/xlink" contentStyleType="text/css" height="336px" preserveAspectRatio="none" style="width:304px;height:336px;background:#FFFFFF;" version="1.1" viewBox="0 0 304 336" width="304px" zoomAndPan="magnify"><defs/><g><!--cluster com--><g id="cluster_com"><path d="M8.5,6.0137 L38.2861,6.0137 A3.75,3.75 0 0 1 40.7861,8.5137 L47.7861,30.6348 L294.5,30.6348 A2.5,2.5 0 0 1 297,33.1348 L297,326.5137 A2.5,2.5 0 0 1 294.5,329.0137 L8.5,329.0137 A2.5,2.5 0 0 1 6,326.5137 L6,8.5137 A2.5,2.5 0 0 1 8.5,6.0137 " fill="none" style="stroke:#000000;stroke-width:1.5;"/><line style="stroke:#000000;stroke-width:1.5;" x1="6" x2="47.7861" y1="30.6348" y2="30.6348"/><text fill="#000000" font-family="sans-serif" font-size="14" font-weight="bold" lengthAdjust="spacing" textLength="28.7861" x="10" y="23.1211">com</text></g><!--cluster exemplo--><g id="cluster_exemplo"><path d="M32.5,51.0137 L90.2998,51.0137 A3.75,3.75 0 0 1 92.7998,53.5137 L99.7998,75.6348 L270.5,75.6348 A2.5,2.5 0 0 1 273,78.1348 L273,302.5137 A2.5,2.5 0 0 1 270.5,305.0137 L32.5,305.0137 A2.5,2.5 0 0 1 30,302.5137 L30,53.5137 A2.5,2.5 0 0 1 32.5,51.0137 " fill="none" style="stroke:#000000;stroke-width:1.5;"/><line style="stroke:#000000;stroke-width:1.5;" x1="30" x2="99.7998" y1="75.6348" y2="75.6348"/><text fill="#000000" font-family="sans-serif" font-size="14" font-weight="bold" lengthAdjust="spacing" textLength="56.7998" x="34" y="68.1211">exemplo</text></g><!--cluster servicos--><g id="cluster_servicos"><path d="M143.5,96.0137 L201.3203,96.0137 A3.75,3.75 0 0 1 203.8203,98.5137 L210.8203,120.6348 L246.5,120.6348 A2.5,2.5 0 0 1 249,123.1348 L249,194.5137 A2.5,2.5 0 0 1 246.5,197.0137 L143.5,197.0137 A2.5,2.5 0 0 1 141,194.5137 L141,98.5137 A2.5,2.5 0 0 1 143.5,96.0137 " fill="none" style="stroke:#000000;stroke-width:1.5;"/><line style="stroke:#000000;stroke-width:1.5;" x1="141" x2="210.8203" y1="120.6348" y2="120.6348"/><text fill="#000000" font-family="sans-serif" font-size="14" font-weight="bold" lengthAdjust="spacing" textLength="56.8203" x="145" y="113.1211">servicos</text></g><!--class Produto--><g id="elem_Produto"><rect codeLine="4" fill="#F1F1F1" height="48" id="Produto" rx="2.5" ry="2.5" style="stroke:#181818;stroke-width:0.5;" width="81.0342" x="154.5" y="241.0137"/><ellipse cx="169.5" cy="257.0137" fill="#ADD1B2" rx="11" ry="11" style="stroke:#181818;stroke-width:1.0;"/><path d="M172.2656,252.8887 Q172.4219,252.6699 172.6094,252.5605 Q172.7969,252.4512 173.0156,252.4512 Q173.3906,252.4512 173.625,252.7168 Q173.8594,252.9668 173.8594,253.5762 L173.8594,255.0293 Q173.8594,255.6387 173.625,255.9043 Q173.3906,256.1699 173.0156,256.1699 Q172.6719,256.1699 172.4688,255.9668 Q172.2656,255.7793 172.1563,255.2637 Q172.1094,254.9043 171.9219,254.7168 Q171.5938,254.3418 170.9844,254.123 Q170.375,253.9043 169.75,253.9043 Q168.9844,253.9043 168.3438,254.2324 Q167.7188,254.5605 167.2188,255.3105 Q166.7344,256.0605 166.7344,257.0918 L166.7344,258.1855 Q166.7344,259.4199 167.625,260.248 Q168.5156,261.0605 170.1094,261.0605 Q171.0469,261.0605 171.7031,260.8105 Q172.0938,260.6543 172.5156,260.2168 Q172.7813,259.9512 172.9219,259.873 Q173.0781,259.7949 173.2813,259.7949 Q173.6094,259.7949 173.8594,260.0605 Q174.125,260.3105 174.125,260.6543 Q174.125,260.998 173.7813,261.4043 Q173.2813,261.9824 172.4844,262.3105 Q171.4063,262.7637 170.1094,262.7637 Q168.5938,262.7637 167.3906,262.1387 Q166.4063,261.6387 165.7188,260.5762 Q165.0313,259.498 165.0313,258.2168 L165.0313,257.0605 Q165.0313,255.7324 165.6406,254.5918 Q166.2656,253.4355 167.3594,252.8262 Q168.4531,252.2012 169.6875,252.2012 Q170.4219,252.2012 171.0625,252.373 Q171.7188,252.5293 172.2656,252.8887 Z " fill="#000000"/><text fill="#000000" font-family="sans-serif" font-size="14" lengthAdjust="spacing" textLength="49.0342" x="183.5" y="262.8105">Produto</text><line style="stroke:#181818;stroke-width:0.5;" x1="155.5" x2="234.5342" y1="273.0137" y2="273.0137"/><line style="stroke:#181818;stroke-width:0.5;" x1="155.5" x2="234.5342" y1="281.0137" y2="281.0137"/></g><!--class Cliente--><g id="elem_Cliente"><rect codeLine="5" fill="#F1F1F1" height="48" id="Cliente" rx="2.5" ry="2.5" style="stroke:#181818;stroke-width:0.5;" width="75.5791" x="46" y="133.0137"/><ellipse cx="61" cy="149.0137" fill="#ADD1B2" rx="11" ry="11" style="stroke:#181818;stroke-width:1.0;"/><path d="M63.7656,144.8887 Q63.9219,144.6699 64.1094,144.5605 Q64.2969,144.4512 64.5156,144.4512 Q64.8906,144.4512 65.125,144.7168 Q65.3594,144.9668 65.3594,145.5762 L65.3594,147.0293 Q65.3594,147.6387 65.125,147.9043 Q64.8906,148.1699 64.5156,148.1699 Q64.1719,148.1699 63.9688,147.9668 Q63.7656,147.7793 63.6563,147.2637 Q63.6094,146.9043 63.4219,146.7168 Q63.0938,146.3418 62.4844,146.123 Q61.875,145.9043 61.25,145.9043 Q60.4844,145.9043 59.8438,146.2324 Q59.2188,146.5605 58.7188,147.3105 Q58.2344,148.0605 58.2344,149.0918 L58.2344,150.1855 Q58.2344,151.4199 59.125,152.248 Q60.0156,153.0605 61.6094,153.0605 Q62.5469,153.0605 63.2031,152.8105 Q63.5938,152.6543 64.0156,152.2168 Q64.2813,151.9512 64.4219,151.873 Q64.5781,151.7949 64.7813,151.7949 Q65.1094,151.7949 65.3594,152.0605 Q65.625,152.3105 65.625,152.6543 Q65.625,152.998 65.2813,153.4043 Q64.7813,153.9824 63.9844,154.3105 Q62.9063,154.7637 61.6094,154.7637 Q60.0938,154.7637 58.8906,154.1387 Q57.9063,153.6387 57.2188,152.5762 Q56.5313,151.498 56.5313,150.2168 L56.5313,149.0605 Q56.5313,147.7324 57.1406,146.5918 Q57.7656,145.4355 58.8594,144.8262 Q59.9531,144.2012 61.1875,144.2012 Q61.9219,144.2012 62.5625,144.373 Q63.2188,144.5293 63.7656,144.8887 Z " fill="#000000"/><text fill="#000000" font-family="sans-serif" font-size="14" lengthAdjust="spacing" textLength="43.5791" x="75" y="154.8105">Cliente</text><line style="stroke:#181818;stroke-width:0.5;" x1="47" x2="120.5791" y1="165.0137" y2="165.0137"/><line style="stroke:#181818;stroke-width:0.5;" x1="47" x2="120.5791" y1="173.0137" y2="173.0137"/></g><!--class Pedido--><g id="elem_Pedido"><rect codeLine="9" fill="#F1F1F1" height="48" id="Pedido" rx="2.5" ry="2.5" style="stroke:#181818;stroke-width:0.5;" width="75.5928" x="157" y="133.0137"/><ellipse cx="172" cy="149.0137" fill="#ADD1B2" rx="11" ry="11" style="stroke:#181818;stroke-width:1.0;"/><path d="M174.7656,144.8887 Q174.9219,144.6699 175.1094,144.5605 Q175.2969,144.4512 175.5156,144.4512 Q175.8906,144.4512 176.125,144.7168 Q176.3594,144.9668 176.3594,145.5762 L176.3594,147.0293 Q176.3594,147.6387 176.125,147.9043 Q175.8906,148.1699 175.5156,148.1699 Q175.1719,148.1699 174.9688,147.9668 Q174.7656,147.7793 174.6563,147.2637 Q174.6094,146.9043 174.4219,146.7168 Q174.0938,146.3418 173.4844,146.123 Q172.875,145.9043 172.25,145.9043 Q171.4844,145.9043 170.8438,146.2324 Q170.2188,146.5605 169.7188,147.3105 Q169.2344,148.0605 169.2344,149.0918 L169.2344,150.1855 Q169.2344,151.4199 170.125,152.248 Q171.0156,153.0605 172.6094,153.0605 Q173.5469,153.0605 174.2031,152.8105 Q174.5938,152.6543 175.0156,152.2168 Q175.2813,151.9512 175.4219,151.873 Q175.5781,151.7949 175.7813,151.7949 Q176.1094,151.7949 176.3594,152.0605 Q176.625,152.3105 176.625,152.6543 Q176.625,152.998 176.2813,153.4043 Q175.7813,153.9824 174.9844,154.3105 Q173.9063,154.7637 172.6094,154.7637 Q171.0938,154.7637 169.8906,154.1387 Q168.9063,153.6387 168.2188,152.5762 Q167.5313,151.498 167.5313,150.2168 L167.5313,149.0605 Q167.5313,147.7324 168.1406,146.5918 Q168.7656,145.4355 169.8594,144.8262 Q170.9531,144.2012 172.1875,144.2012 Q172.9219,144.2012 173.5625,144.373 Q174.2188,144.5293 174.7656,144.8887 Z " fill="#000000"/><text fill="#000000" font-family="sans-serif" font-size="14" lengthAdjust="spacing" textLength="43.5928" x="186" y="154.8105">Pedido</text><line style="stroke:#181818;stroke-width:0.5;" x1="158" x2="231.5928" y1="165.0137" y2="165.0137"/><line style="stroke:#181818;stroke-width:0.5;" x1="158" x2="231.5928" y1="173.0137" y2="173.0137"/></g><!--link Pedido to Produto--><g id="link_Pedido_Produto"><path codeLine="11" d="M195,181.0137 C195,198.6737 195,216.9537 195,234.6937 " fill="none" id="Pedido-to-Produto" style="stroke:#181818;stroke-width:1.0;"/><polygon fill="#181818" points="195,240.6937,199,231.6937,195,235.6937,191,231.6937,195,240.6937" style="stroke:#181818;stroke-width:1.0;"/></g><!--SRC=[ROrB2W8n44JtEKMxSZN14mZYoftW2Tga6Pf9qY7T4JzuTuKHKPXbKVLUhLUruPWH4jwa6sWcmu9E9ouL6sO82LLtPetFtUWGf9puJh1n5SE48q6GxEbAkIQ1XuCPW6EJs4s-UP-OYf5xkYNGAxKB1z5V0qMEyWQMTdvkOHYsVvxFxGi0]--></g></svg>