<svg xmlns="http://www.w3.org/2000/svg" xmlns:xlink="http://www.w3.org/1999/xlink" contentStyleType="text/css" height="207px" preserveAspectRatio="none" style="width:124px;height:207px;background:#FFFFFF;" version="1.1" viewBox="0 0 124 207" width="124px" zoomAndPan="magnify"><defs/><g><!--class Pessoa--><g id="elem_Pessoa"><rect codeLine="3" fill="#F1F1F1" height="66.6211" id="Pessoa" rx="2.5" ry="2.5" style="stroke:#181818;stroke-width:0.5;" width="99.5479" x="12" y="7"/><ellipse cx="36.3832" cy="23" fill="#ADD1B2" rx="11" ry="11" style="stroke:#181818;stroke-width:1.0;"/><path d="M39.1488,18.875 Q39.3051,18.6563 39.4926,18.5469 Q39.6801,18.4375 39.8988,18.4375 Q40.2738,18.4375 40.5082,18.7031 Q40.7426,18.9531 40.7426,19.5625 L40.7426,21.0156 Q40.7426,21.625 40.5082,21.8906 Q40.2738,22.1563 39.8988,22.1563 Q39.5551,22.1563 39.352,21.9531 Q39.1488,21.7656 39.0395,21.25 Q38.9926,20.8906 38.8051,20.7031 Q38.477,20.3281 37.8676,20.1094 Q37.2582,19.8906 36.6332,19.8906 Q35.8676,19.8906 35.227,20.2188 Q34.602,20.5469 34.102,21.2969 Q33.6176,22.0469 33.6176,23.0781 L33.6176,24.1719 Q33.6176,25.4063 34.5082,26.2344 Q35.3988,27.0469 36.9926,27.0469 Q37.9301,27.0469 38.5863,26.7969 Q38.977,26.6406 39.3988,26.2031 Q39.6645,25.9375 39.8051,25.8594 Q39.9613,25.7813 40.1645,25.7813 Q40.4926,25.7813 40.7426,26.0469 Q41.0082,26.2969 41.0082,26.6406 Q41.0082,26.9844 40.6645,27.3906 Q40.1645,27.9688 39.3676,28.2969 Q38.2895,28.75 36.9926,28.75 Q35.477,28.75 34.2738,28.125 Q33.2895,27.625 32.602,26.5625 Q31.9145,25.4844 31.9145,24.2031 L31.9145,23.0469 Q31.9145,21.7188 32.5238,20.5781 Q33.1488,19.4219 34.2426,18.8125 Q35.3363,18.1875 36.5707,18.1875 Q37.3051,18.1875 37.9457,18.3594 Q38.602,18.5156 39.1488,18.875 Z " fill="#000000"/><text fill="#000000" font-family="sans-serif" font-size="14" lengthAdjust="spacing" textLength="46.6963" x="52.4684" y="28.7969">Pessoa</text><line style="stroke:#181818;stroke-width:0.5;" x1="13" x2="110.5479" y1="39" y2="39"/><text fill="#000000" font-family="sans-serif" font-size="14" lengthAdjust="spacing" textLength="87.5479" x="18" y="58.1074">+nome: String</text><line style="stroke:#181818;stroke-width:0.5;" x1="13" x2="110.5479" y1="65.6211" y2="65.6211"/></g><!--class Carro--><g id="elem_Carro"><rect codeLine="7" fill="#F1F1F1" height="66.6211" id="Carro" rx="2.5" ry="2.5" style="stroke:#181818;stroke-width:0.5;" width="110.4443" x="7" y="134"/><ellipse cx="41.5469" cy="150" fill="#ADD1B2" rx="11" ry="11" style="stroke:#181818;stroke-width:1.0;"/><path d="M44.3125,145.875 Q44.4688,145.6563 44.6563,145.5469 Q44.8438,145.4375 45.0625,145.4375 Q45.4375,145.4375 45.6719,145.7031 Q45.9063,145.9531 45.9063,146.5625 L45.9063,148.0156 Q45.9063,148.625 45.6719,148.8906 Q45.4375,149.1563 45.0625,149.1563 Q44.7188,149.1563 44.5156,148.9531 Q44.3125,148.7656 44.2031,148.25 Q44.1563,147.8906 43.9688,147.7031 Q43.6406,147.3281 43.0313,147.1094 Q42.4219,146.8906 41.7969,146.8906 Q41.0313,146.8906 40.3906,147.2188 Q39.7656,147.5469 39.2656,148.2969 Q38.7813,149.0469 38.7813,150.0781 L38.7813,151.1719 Q38.7813,152.4063 39.6719,153.2344 Q40.5625,154.0469 42.1563,154.0469 Q43.0938,154.0469 43.75,153.7969 Q44.1406,153.6406 44.5625,153.2031 Q44.8281,152.9375 44.9688,152.8594 Q45.125,152.7813 45.3281,152.7813 Q45.6563,152.7813 45.9063,153.0469 Q46.1719,153.2969 46.1719,153.6406 Q46.1719,153.9844 45.8281,154.3906 Q45.3281,154.9688 44.5313,155.2969 Q43.4531,155.75 42.1563,155.75 Q40.6406,155.75 39.4375,155.125 Q38.4531,154.625 37.7656,153.5625 Q37.0781,152.4844 37.0781,151.2031 L37.0781,150.0469 Q37.0781,148.7188 37.6875,147.5781 Q38.3125,146.4219 39.4063,145.8125 Q40.5,145.1875 41.7344,145.1875 Q42.4688,145.1875 43.1094,145.3594 Q43.7656,145.5156 44.3125,145.875 Z " fill="#000000"/><text fill="#000000" font-family="sans-serif" font-size="14" lengthAdjust="spacing" textLength="35.0068" x="59.8906" y="155.7969">Carro</text><line style="stroke:#181818;stroke-width:0.5;" x1="8" x2="116.4443" y1="166" y2="166"/><text fill="#000000" font-family="sans-serif" font-size="14" lengthAdjust="spacing" textLength="98.4443" x="13" y="185.1074">+modelo: String</text><line style="stroke:#181818;stroke-width:0.5;" x1="8" x2="116.4443" y1="192.6211" y2="192.6211"/></g><!--link Pessoa to Carro--><g id="link_Pessoa_Carro"><path codeLine="11" d="M62,74.02 C62,92.39 62,115.29 62,133.71 " fill="none" id="Pessoa-Carro" style="stroke:#181818;stroke-width:1.0;"/><text fill="#000000" font-family="sans-serif" font-size="13" lengthAdjust="spacing" textLength="7.23" x="54.4373" y="95.5928">1</text><text fill="#000000" font-family="sans-serif" font-size="13" lengthAdjust="spacing" textLength="19.5127" x="41.1956" y="122.7406">0..*</text></g><!--SRC=[JSin2i9044RXVa_nkusW9CJMJgpi0Zd1c0nXSNSdx4mA5U-k92cit_VskwdGc0YHdZ8RDB5H9gUFa2SgbD17KhsObN2VZM-zv2wy68rR0bfM5SBR0SSiYS_eVZIFxkCsSQLIP0L91exoJxRTdpog2hwfwuDVZoy0]--></g></svg>