<svg xmlns="http://www.w3.org/2000/svg" xmlns:xlink="http://www.w3.org/1999/xlink" contentStyleType="text/css" height="207px" preserveAspectRatio="none" style="width:356px;height:207px;background:#FFFFFF;" version="1.1" viewBox="0 0 356 207" width="356px" zoomAndPan="magnify"><defs/><g><!--class Departamento--><g id="elem_Departamento"><rect codeLine="2" fill="#F1F1F1" height="66.6211" id="Departamento" rx="2.5" ry="2.5" style="stroke:#181818;stroke-width:0.5;" width="342.3467" x="7" y="7"/><ellipse cx="129.5649" cy="23" fill="#ADD1B2" rx="11" ry="11" style="stroke:#181818;stroke-width:1.0;"/><path d="M132.3306,18.875 Q132.4868,18.6563 132.6743,18.5469 Q132.8618,18.4375 133.0806,18.4375 Q133.4556,18.4375 133.6899,18.7031 Q133.9243,18.9531 133.9243,19.5625 L133.9243,21.0156 Q133.9243,21.625 133.6899,21.8906 Q133.4556,22.1563 133.0806,22.1563 Q132.7368,22.1563 132.5337,21.9531 Q132.3306,21.7656 132.2212,21.25 Q132.1743,20.8906 131.9868,20.7031 Q131.6587,20.3281 131.0493,20.1094 Q130.4399,19.8906 129.8149,19.8906 Q129.0493,19.8906 128.4087,20.2188 Q127.7837,20.5469 127.2837,21.2969 Q126.7993,22.0469 126.7993,23.0781 L126.7993,24.1719 Q126.7993,25.4063 127.6899,26.2344 Q128.5806,27.0469 130.1743,27.0469 Q131.1118,27.0469 131.7681,26.7969 Q132.1587,26.6406 132.5806,26.2031 Q132.8462,25.9375 132.9868,25.8594 Q133.1431,25.7813 133.3462,25.7813 Q133.6743,25.7813 133.9243,26.0469 Q134.1899,26.2969 134.1899,26.6406 Q134.1899,26.9844 133.8462,27.3906 Q133.3462,27.9688 132.5493,28.2969 Q131.4712,28.75 130.1743,28.75 Q128.6587,28.75 127.4556,28.125 Q126.4712,27.625 125.7837,26.5625 Q125.0962,25.4844 125.0962,24.2031 L125.0962,23.0469 Q125.0962,21.7188 125.7056,20.5781 Q126.3306,19.4219 127.4243,18.8125 Q128.5181,18.1875 129.7524,18.1875 Q130.4868,18.1875 131.1274,18.3594 Q131.7837,18.5156 132.3306,18.875 Z " fill="#000000"/><text fill="#000000" font-family="sans-serif" font-size="14" lengthAdjust="spacing" textLength="88.7168" x="150.0649" y="28.7969">Departamento</text><line style="stroke:#181818;stroke-width:0.5;" x1="8" x2="348.3467" y1="39" y2="39"/><line style="stroke:#181818;stroke-width:0.5;" x1="8" x2="348.3467" y1="47" y2="47"/><text fill="#000000" font-family="sans-serif" font-size="14" lengthAdjust="spacing" textLength="330.3467" x="13" y="66.1074">+adicionarFuncionario(funcionario: Funcionario): void</text></g><!--class Funcionario--><g id="elem_Funcionario"><rect codeLine="6" fill="#F1F1F1" height="66.6211" id="Funcionario" rx="2.5" ry="2.5" style="stroke:#181818;stroke-width:0.5;" width="105.1514" x="125.5" y="134"/><ellipse cx="140.5" cy="150" fill="#ADD1B2" rx="11" ry="11" style="stroke:#181818;stroke-width:1.0;"/><path d="M143.2656,145.875 Q143.4219,145.6563 143.6094,145.5469 Q143.7969,145.4375 144.0156,145.4375 Q144.3906,145.4375 144.625,145.7031 Q144.8594,145.9531 144.8594,146.5625 L144.8594,148.0156 Q144.8594,148.625 144.625,148.8906 Q144.3906,149.1563 144.0156,149.1563 Q143.6719,149.1563 143.4688,148.9531 Q143.2656,148.7656 143.1563,148.25 Q143.1094,147.8906 142.9219,147.7031 Q142.5938,147.3281 141.9844,147.1094 Q141.375,146.8906 140.75,146.8906 Q139.9844,146.8906 139.3438,147.2188 Q138.7188,147.5469 138.2188,148.2969 Q137.7344,149.0469 137.7344,150.0781 L137.7344,151.1719 Q137.7344,152.4063 138.625,153.2344 Q139.5156,154.0469 141.1094,154.0469 Q142.0469,154.0469 142.7031,153.7969 Q143.0938,153.6406 143.5156,153.2031 Q143.7813,152.9375 143.9219,152.8594 Q144.0781,152.7813 144.2813,152.7813 Q144.6094,152.7813 144.8594,153.0469 Q145.125,153.2969 145.125,153.6406 Q145.125,153.9844 144.7813,154.3906 Q144.2813,154.9688 143.4844,155.2969 Q142.4063,155.75 141.1094,155.75 Q139.5938,155.75 138.3906,155.125 Q137.4063,154.625 136.7188,153.5625 Q136.0313,152.4844 136.0313,151.2031 L136.0313,150.0469 Q136.0313,148.7188 136.6406,147.5781 Q137.2656,146.4219 138.3594,145.8125 Q139.4531,145.1875 140.6875,145.1875 Q141.4219,145.1875 142.0625,145.3594 Q142.7188,145.5156 143.2656,145.875 Z " fill="#000000"/><text fill="#000000" font-family="sans-serif" font-size="14" lengthAdjust="spacing" textLength="73.1514" x="154.5" y="155.7969">Funcionario</text><line style="stroke:#181818;stroke-width:0.5;" x1="126.5" x2="229.6514" y1="166" y2="166"/><text fill="#000000" font-family="sans-serif" font-size="14" lengthAdjust="spacing" textLength="87.5479" x="131.5" y="185.1074">+nome: String</text><line style="stroke:#181818;stroke-width:0.5;" x1="126.5" x2="229.6514" y1="192.6211" y2="192.6211"/></g><!--link Departamento to Funcionario--><g id="link_Departamento_Funcionario"><path codeLine="9" d="M178,86.02 C178,104.39 178,109.29 178,127.71 " fill="none" id="Departamento-Funcionario" style="stroke:#181818;stroke-width:1.0;"/><polygon fill="none" points="178,74.02,174,80.02,178,86.02,182,80.02,178,74.02" style="stroke:#181818;stroke-width:1.0;"/><polygon fill="#181818" points="178,133.71,182,124.71,178,128.71,174,124.71,178,133.71" style="stroke:#181818;stroke-width:1.0;"/></g><!--SRC=[AyxEp2j8B4hCLKZEIImkTYmfASfCAYr9zKpEpmlEh4fLCE02IoYuf0ALbIJcfkQLv2jKSoaeQ2UcP2PdvkSb5hcLva4OcVaQQGYsbGAIXAQLGbb-PWfNBHVKF2GvY75v-RcfLWh1GFlpqe7AKEpBrzMrGzO10000]--></g></svg>