<svg xmlns="http://www.w3.org/2000/svg" xmlns:xlink="http://www.w3.org/1999/xlink" contentStyleType="text/css" height="244px" preserveAspectRatio="none" style="width:192px;height:244px;background:#FFFFFF;" version="1.1" viewBox="0 0 192 244" width="192px" zoomAndPan="magnify"><defs/><g><!--class Pedido--><g id="elem_Pedido"><rect codeLine="3" fill="#F1F1F1" height="85.2422" id="Pedido" rx="2.5" ry="2.5" style="stroke:#181818;stroke-width:0.5;" width="91.7754" x="50.5" y="7"/><ellipse cx="72.7822" cy="23" fill="#ADD1B2" rx="11" ry="11" style="stroke:#181818;stroke-width:1.0;"/><path d="M75.5478,18.875 Q75.7041,18.6563 75.8916,18.5469 Q76.0791,18.4375 76.2978,18.4375 Q76.6728,18.4375 76.9072,18.7031 Q77.1416,18.9531 77.1416,19.5625 L77.1416,21.0156 Q77.1416,21.625 76.9072,21.8906 Q76.6728,22.1563 76.2978,22.1563 Q75.9541,22.1563 75.7509,21.9531 Q75.5478,21.7656 75.4384,21.25 Q75.3916,20.8906 75.2041,20.7031 Q74.8759,20.3281 74.2666,20.1094 Q73.6572,19.8906 73.0322,19.8906 Q72.2666,19.8906 71.6259,20.2188 Q71.0009,20.5469 70.5009,21.2969 Q70.0166,22.0469 70.0166,23.0781 L70.0166,24.1719 Q70.0166,25.4063 70.9072,26.2344 Q71.7978,27.0469 73.3916,27.0469 Q74.3291,27.0469 74.9853,26.7969 Q75.3759,26.6406 75.7978,26.2031 Q76.0634,25.9375 76.2041,25.8594 Q76.3603,25.7813 76.5634,25.7813 Q76.8916,25.7813 77.1416,26.0469 Q77.4072,26.2969 77.4072,26.6406 Q77.4072,26.9844 77.0634,27.3906 Q76.5634,27.9688 75.7666,28.2969 Q74.6884,28.75 73.3916,28.75 Q71.8759,28.75 70.6728,28.125 Q69.6884,27.625 69.0009,26.5625 Q68.3134,25.4844 68.3134,24.2031 L68.3134,23.0469 Q68.3134,21.7188 68.9228,20.5781 Q69.5478,19.4219 70.6416,18.8125 Q71.7353,18.1875 72.9697,18.1875 Q73.7041,18.1875 74.3447,18.3594 Q75.0009,18.5156 75.5478,18.875 Z " fill="#000000"/><text fill="#000000" font-family="sans-serif" font-size="14" lengthAdjust="spacing" textLength="43.5928" x="88.4004" y="28.7969">Pedido</text><line style="stroke:#181818;stroke-width:0.5;" x1="51.5" x2="141.2754" y1="39" y2="39"/><text fill="#000000" font-family="sans-serif" font-size="14" lengthAdjust="spacing" textLength="78.21" x="56.5" y="58.1074">+numero: int</text><text fill="#000000" font-family="sans-serif" font-size="14" lengthAdjust="spacing" textLength="79.7754" x="56.5" y="76.7285">+data: String</text><line style="stroke:#181818;stroke-width:0.5;" x1="51.5" x2="141.2754" y1="84.2422" y2="84.2422"/></g><!--class ItemPedido--><g id="elem_ItemPedido"><rect codeLine="7" fill="#F1F1F1" height="85.2422" id="ItemPedido" rx="2.5" ry="2.5" style="stroke:#181818;stroke-width:0.5;" width="178.9336" x="7" y="152"/><ellipse cx="56.8066" cy="168" fill="#ADD1B2" rx="11" ry="11" style="stroke:#181818;stroke-width:1.0;"/><path d="M59.5723,163.875 Q59.7285,163.6563 59.916,163.5469 Q60.1035,163.4375 60.3223,163.4375 Q60.6973,163.4375 60.9316,163.7031 Q61.166,163.9531 61.166,164.5625 L61.166,166.0156 Q61.166,166.625 60.9316,166.8906 Q60.6973,167.1563 60.3223,167.1563 Q59.9785,167.1563 59.7754,166.9531 Q59.5723,166.7656 59.4629,166.25 Q59.416,165.8906 59.2285,165.7031 Q58.9004,165.3281 58.291,165.1094 Q57.6816,164.8906 57.0566,164.8906 Q56.291,164.8906 55.6504,165.2188 Q55.0254,165.5469 54.5254,166.2969 Q54.041,167.0469 54.041,168.0781 L54.041,169.1719 Q54.041,170.4063 54.9316,171.2344 Q55.8223,172.0469 57.416,172.0469 Q58.3535,172.0469 59.0098,171.7969 Q59.4004,171.6406 59.8223,171.2031 Q60.0879,170.9375 60.2285,170.8594 Q60.3848,170.7813 60.5879,170.7813 Q60.916,170.7813 61.166,171.0469 Q61.4316,171.2969 61.4316,171.6406 Q61.4316,171.9844 61.0879,172.3906 Q60.5879,172.9688 59.791,173.2969 Q58.7129,173.75 57.416,173.75 Q55.9004,173.75 54.6973,173.125 Q53.7129,172.625 53.0254,171.5625 Q52.3379,170.4844 52.3379,169.2031 L52.3379,168.0469 Q52.3379,166.7188 52.9473,165.5781 Q53.5723,164.4219 54.666,163.8125 Q55.7598,163.1875 56.9941,163.1875 Q57.7285,163.1875 58.3691,163.3594 Q59.0254,163.5156 59.5723,163.875 Z " fill="#000000"/><text fill="#000000" font-family="sans-serif" font-size="14" lengthAdjust="spacing" textLength="70.8203" x="77.3066" y="173.7969">ItemPedido</text><line style="stroke:#181818;stroke-width:0.5;" x1="8" x2="184.9336" y1="184" y2="184"/><text fill="#000000" font-family="sans-serif" font-size="14" lengthAdjust="spacing" textLength="100.0303" x="13" y="203.1074">+quantidade: int</text><line style="stroke:#181818;stroke-width:0.5;" x1="8" x2="184.9336" y1="210.6211" y2="210.6211"/><text fill="#000000" font-family="sans-serif" font-size="14" lengthAdjust="spacing" textLength="166.9336" x="13" y="229.7285">+calcularSubtotal(): double</text></g><!--reverse link Pedido to ItemPedido--><g id="link_Pedido_ItemPedido"><path codeLine="11" d="M96.5,104.25 C96.5,123.04 96.5,133.18 96.5,151.95 " fill="none" id="Pedido-backto-ItemPedido" style="stroke:#181818;stroke-width:1.0;"/><polygon fill="#181818" points="96.5,92.25,92.5,98.25,96.5,104.25,100.5,98.25,96.5,92.25" style="stroke:#181818;stroke-width:1.0;"/></g><!--SRC=[JSmx3i8m40JGtgTOAdwAH9sECXrIJZ2nLv65Fy7UBGBYxWGKePIZcJVxtLGmHb30d5MeHXOac7htQK9191jGwrMa-465EvjJxvzC5_ChwCREkqmlGtHE6hdabdoIRtGGjDGlCetclUuxuRWr3qKIx-3uxoo2rO3Iwo1P40x7bbpM8V3oijfJqsokFW00]--></g></svg>