<svg xmlns="http://www.w3.org/2000/svg" xmlns:xlink="http://www.w3.org/1999/xlink" contentStyleType="text/css" height="225px" preserveAspectRatio="none" style="width:320px;height:225px;background:#FFFFFF;" version="1.1" viewBox="0 0 320 225" width="320px" zoomAndPan="magnify"><defs/><g><!--class Pessoa--><g id="elem_Pessoa"><rect codeLine="3" fill="#F1F1F1" height="85.2422" id="Pessoa" rx="2.5" ry="2.5" style="stroke:#181818;stroke-width:0.5;" width="307.3398" x="6" y="12"/><ellipse cx="132.0718" cy="28" fill="#ADD1B2" rx="11" ry="11" style="stroke:#181818;stroke-width:1.0;"/><path d="M134.8374,23.875 Q134.9937,23.6563 135.1812,23.5469 Q135.3687,23.4375 135.5874,23.4375 Q135.9624,23.4375 136.1968,23.7031 Q136.4312,23.9531 136.4312,24.5625 L136.4312,26.0156 Q136.4312,26.625 136.1968,26.8906 Q135.9624,27.1563 135.5874,27.1563 Q135.2437,27.1563 135.0405,26.9531 Q134.8374,26.7656 134.728,26.25 Q134.6812,25.8906 134.4937,25.7031 Q134.1655,25.3281 133.5562,25.1094 Q132.9468,24.8906 132.3218,24.8906 Q131.5562,24.8906 130.9155,25.2188 Q130.2905,25.5469 129.7905,26.2969 Q129.3062,27.0469 129.3062,28.0781 L129.3062,29.1719 Q129.3062,30.4063 130.1968,31.2344 Q131.0874,32.0469 132.6812,32.0469 Q133.6187,32.0469 134.2749,31.7969 Q134.6655,31.6406 135.0874,31.2031 Q135.353,30.9375 135.4937,30.8594 Q135.6499,30.7813 135.853,30.7813 Q136.1812,30.7813 136.4312,31.0469 Q136.6968,31.2969 136.6968,31.6406 Q136.6968,31.9844 136.353,32.3906 Q135.853,32.9688 135.0562,33.2969 Q133.978,33.75 132.6812,33.75 Q131.1655,33.75 129.9624,33.125 Q128.978,32.625 128.2905,31.5625 Q127.603,30.4844 127.603,29.2031 L127.603,28.0469 Q127.603,26.7188 128.2124,25.5781 Q128.8374,24.4219 129.9312,23.8125 Q131.0249,23.1875 132.2593,23.1875 Q132.9937,23.1875 133.6343,23.3594 Q134.2905,23.5156 134.8374,23.875 Z " fill="#000000"/><text fill="#000000" font-family="sans-serif" font-size="14" lengthAdjust="spacing" textLength="46.6963" x="152.5718" y="33.7969">Pessoa</text><line style="stroke:#181818;stroke-width:0.5;" x1="7" x2="312.3398" y1="44" y2="44"/><text fill="#000000" font-family="sans-serif" font-size="14" lengthAdjust="spacing" textLength="87.5479" x="12" y="63.1074">+nome: String</text><line style="stroke:#181818;stroke-width:0.5;" x1="7" x2="312.3398" y1="70.6211" y2="70.6211"/><text fill="#000000" font-family="sans-serif" font-size="14" lengthAdjust="spacing" textLength="295.3398" x="12" y="89.7285">+cadastrarEndereco(endereco: Endereco): void</text></g><!--class Endereco--><g id="elem_Endereco"><rect codeLine="7" fill="#F1F1F1" height="85.2422" id="Endereco" rx="2.5" ry="2.5" style="stroke:#181818;stroke-width:0.5;" width="91.9307" x="113.5" y="133"/><ellipse cx="128.5" cy="149" fill="#ADD1B2" rx="11" ry="11" style="stroke:#181818;stroke-width:1.0;"/><path d="M131.2656,144.875 Q131.4219,144.6563 131.6094,144.5469 Q131.7969,144.4375 132.0156,144.4375 Q132.3906,144.4375 132.625,144.7031 Q132.8594,144.9531 132.8594,145.5625 L132.8594,147.0156 Q132.8594,147.625 132.625,147.8906 Q132.3906,148.1563 132.0156,148.1563 Q131.6719,148.1563 131.4688,147.9531 Q131.2656,147.7656 131.1563,147.25 Q131.1094,146.8906 130.9219,146.7031 Q130.5938,146.3281 129.9844,146.1094 Q129.375,145.8906 128.75,145.8906 Q127.9844,145.8906 127.3438,146.2188 Q126.7188,146.5469 126.2188,147.2969 Q125.7344,148.0469 125.7344,149.0781 L125.7344,150.1719 Q125.7344,151.4063 126.625,152.2344 Q127.5156,153.0469 129.1094,153.0469 Q130.0469,153.0469 130.7031,152.7969 Q131.0938,152.6406 131.5156,152.2031 Q131.7813,151.9375 131.9219,151.8594 Q132.0781,151.7813 132.2813,151.7813 Q132.6094,151.7813 132.8594,152.0469 Q133.125,152.2969 133.125,152.6406 Q133.125,152.9844 132.7813,153.3906 Q132.2813,153.9688 131.4844,154.2969 Q130.4063,154.75 129.1094,154.75 Q127.5938,154.75 126.3906,154.125 Q125.4063,153.625 124.7188,152.5625 Q124.0313,151.4844 124.0313,150.2031 L124.0313,149.0469 Q124.0313,147.7188 124.6406,146.5781 Q125.2656,145.4219 126.3594,144.8125 Q127.4531,144.1875 128.6875,144.1875 Q129.4219,144.1875 130.0625,144.3594 Q130.7188,144.5156 131.2656,144.875 Z " fill="#000000"/><text fill="#000000" font-family="sans-serif" font-size="14" lengthAdjust="spacing" textLength="59.9307" x="142.5" y="154.7969">Endereco</text><line style="stroke:#181818;stroke-width:0.5;" x1="114.5" x2="204.4307" y1="165" y2="165"/><text fill="#000000" font-family="sans-serif" font-size="14" lengthAdjust="spacing" textLength="72.7617" x="119.5" y="184.1074">+rua: String</text><text fill="#000000" font-family="sans-serif" font-size="14" lengthAdjust="spacing" textLength="78.21" x="119.5" y="202.7285">+numero: int</text><line style="stroke:#181818;stroke-width:0.5;" x1="114.5" x2="204.4307" y1="210.2422" y2="210.2422"/></g><polygon fill="#181818" points="159.5,132.7019,163.5,123.7019,159.5,127.7019,155.5,123.7019,159.5,132.7019" style="stroke:#181818;stroke-width:1.0;"/><path d="M159.5,97.1204 C159.5,108.6485 159.5,115.1638 159.5,126.7019 " fill="none" style="stroke:#181818;stroke-width:1.0;"/><!--SRC=[JOsn2i9038RtUuguAL9mxY0uEBW9VO9u5yfXBrUIN475TxVgLToI_y_tPJKAzWbXm5ik1fh8aD7fDVA8WWdyWAe7CucNOdJocRju9zYvJm5dKiq83mUmvPoeXMu-vVwzUmoe9YX73YJayvhgqC8IRLgOSWpkMNrB_ZLAmNyXbqGomv5j1khhfjd_g1S0]--></g></svg>