<svg xmlns="http://www.w3.org/2000/svg" xmlns:xlink="http://www.w3.org/1999/xlink" contentStyleType="text/css" height="1124px" preserveAspectRatio="none" style="width:780px;height:1124px;background:#FFFFFF;" version="1.1" viewBox="0 0 780 1124" width="780px" zoomAndPan="magnify"><defs/><g><!--class Pessoa--><g id="elem_Pessoa"><rect codeLine="3" fill="#F1F1F1" height="122.4844" id="Pessoa" rx="2.5" ry="2.5" style="stroke:#181818;stroke-width:0.5;" width="218.5957" x="315" y="7"/><ellipse cx="396.6997" cy="23" fill="#A9DCDF" rx="11" ry="11" style="stroke:#181818;stroke-width:1.0;"/><path d="M398.8872,24.7656 L394.7466,24.7656 L394.3247,25.7969 L394.7466,25.7969 Q395.356,25.7969 395.6216,26.0313 Q395.8872,26.2656 395.8872,26.6563 Q395.8872,27.0313 395.6216,27.2656 Q395.356,27.5 394.7466,27.5 L392.4497,27.5 Q391.8403,27.5 391.5903,27.2656 Q391.3247,27.0313 391.3247,26.6406 Q391.3247,26.2656 391.606,26.0313 Q391.8716,25.7813 392.4966,25.7969 L395.1685,19.1406 L394.0591,19.1406 Q393.4497,19.1406 393.1841,18.9063 Q392.9185,18.6719 392.9185,18.2813 Q392.9185,17.9063 393.1841,17.6719 Q393.4497,17.4375 394.0591,17.4375 L397.731,17.4375 L401.1216,25.7969 Q401.7153,25.7969 401.9028,25.9375 Q402.2935,26.2031 402.2935,26.6563 Q402.2935,27.0313 402.0278,27.2656 Q401.7778,27.5 401.1685,27.5 L398.8716,27.5 Q398.2622,27.5 397.9966,27.2656 Q397.731,27.0313 397.731,26.6406 Q397.731,26.2656 397.9966,26.0313 Q398.2622,25.7969 398.8716,25.7969 L399.2935,25.7969 L398.8872,24.7656 Z M398.1685,23.0625 L396.8091,19.6875 L395.4341,23.0625 L398.1685,23.0625 Z " fill="#000000"/><text fill="#000000" font-family="sans-serif" font-size="14" font-style="italic" lengthAdjust="spacing" textLength="46.6963" x="417.1997" y="28.7969">Pessoa</text><line style="stroke:#181818;stroke-width:0.5;" x1="316" x2="532.5957" y1="39" y2="39"/><text fill="#000000" font-family="sans-serif" font-size="14" lengthAdjust="spacing" textLength="87.9238" x="321" y="58.1074">-nome : String</text><text fill="#000000" font-family="sans-serif" font-size="14" lengthAdjust="spacing" textLength="71.5791" x="321" y="76.7285">-cpf : String</text><line style="stroke:#181818;stroke-width:0.5;" x1="316" x2="532.5957" y1="84.2422" y2="84.2422"/><text fill="#000000" font-family="sans-serif" font-size="14" lengthAdjust="spacing" textLength="206.5957" x="321" y="103.3496">+Pessoa(String nome, String cpf)</text><text fill="#000000" font-family="sans-serif" font-size="14" lengthAdjust="spacing" textLength="164.9512" x="321" y="121.9707">#exibirInformacoes() : void</text></g><!--class Medico--><g id="elem_Medico"><rect codeLine="10" fill="#F1F1F1" height="141.1055" id="Medico" rx="2.5" ry="2.5" style="stroke:#181818;stroke-width:0.5;" width="422.457" x="81.5" y="190"/><ellipse cx="265.9131" cy="206" fill="#ADD1B2" rx="11" ry="11" style="stroke:#181818;stroke-width:1.0;"/><path d="M268.6787,201.875 Q268.835,201.6563 269.0225,201.5469 Q269.21,201.4375 269.4287,201.4375 Q269.8037,201.4375 270.0381,201.7031 Q270.2725,201.9531 270.2725,202.5625 L270.2725,204.0156 Q270.2725,204.625 270.0381,204.8906 Q269.8037,205.1563 269.4287,205.1563 Q269.085,205.1563 268.8818,204.9531 Q268.6787,204.7656 268.5693,204.25 Q268.5225,203.8906 268.335,203.7031 Q268.0068,203.3281 267.3975,203.1094 Q266.7881,202.8906 266.1631,202.8906 Q265.3975,202.8906 264.7568,203.2188 Q264.1318,203.5469 263.6318,204.2969 Q263.1475,205.0469 263.1475,206.0781 L263.1475,207.1719 Q263.1475,208.4063 264.0381,209.2344 Q264.9287,210.0469 266.5225,210.0469 Q267.46,210.0469 268.1162,209.7969 Q268.5068,209.6406 268.9287,209.2031 Q269.1943,208.9375 269.335,208.8594 Q269.4912,208.7813 269.6943,208.7813 Q270.0225,208.7813 270.2725,209.0469 Q270.5381,209.2969 270.5381,209.6406 Q270.5381,209.9844 270.1943,210.3906 Q269.6943,210.9688 268.8975,211.2969 Q267.8193,211.75 266.5225,211.75 Q265.0068,211.75 263.8037,211.125 Q262.8193,210.625 262.1318,209.5625 Q261.4443,208.4844 261.4443,207.2031 L261.4443,206.0469 Q261.4443,204.7188 262.0537,203.5781 Q262.6787,202.4219 263.7725,201.8125 Q264.8662,201.1875 266.1006,201.1875 Q266.835,201.1875 267.4756,201.3594 Q268.1318,201.5156 268.6787,201.875 Z " fill="#000000"/><text fill="#000000" font-family="sans-serif" font-size="14" lengthAdjust="spacing" textLength="45.1309" x="286.4131" y="211.7969">Medico</text><line style="stroke:#181818;stroke-width:0.5;" x1="82.5" x2="502.957" y1="222" y2="222"/><text fill="#000000" font-family="sans-serif" font-size="14" lengthAdjust="spacing" textLength="138.5234" x="87.5" y="241.1074">-especialidade : String</text><text fill="#000000" font-family="sans-serif" font-size="14" lengthAdjust="spacing" textLength="76.2275" x="87.5" y="259.7285">-crm : String</text><line style="stroke:#181818;stroke-width:0.5;" x1="82.5" x2="502.957" y1="267.2422" y2="267.2422"/><text fill="#000000" font-family="sans-serif" font-size="14" lengthAdjust="spacing" textLength="410.457" x="87.5" y="286.3496">+Medico(String nome, String cpf, String especialidade, String crm)</text><text fill="#000000" font-family="sans-serif" font-size="14" lengthAdjust="spacing" textLength="165.3408" x="87.5" y="304.9707">+exibirInformacoes() : void</text><text fill="#000000" font-family="sans-serif" font-size="14" lengthAdjust="spacing" textLength="272.7744" x="87.5" y="323.5918">+agendarConsulta(Consulta consulta) : void</text></g><!--class Paciente--><g id="elem_Paciente"><rect codeLine="18" fill="#F1F1F1" height="122.4844" id="Paciente" rx="2.5" ry="2.5" style="stroke:#181818;stroke-width:0.5;" width="486.3115" x="287.5" y="630"/><ellipse cx="499.1646" cy="646" fill="#ADD1B2" rx="11" ry="11" style="stroke:#181818;stroke-width:1.0;"/><path d="M501.9302,641.875 Q502.0864,641.6563 502.2739,641.5469 Q502.4614,641.4375 502.6802,641.4375 Q503.0552,641.4375 503.2896,641.7031 Q503.5239,641.9531 503.5239,642.5625 L503.5239,644.0156 Q503.5239,644.625 503.2896,644.8906 Q503.0552,645.1563 502.6802,645.1563 Q502.3364,645.1563 502.1333,644.9531 Q501.9302,644.7656 501.8208,644.25 Q501.7739,643.8906 501.5864,643.7031 Q501.2583,643.3281 500.6489,643.1094 Q500.0396,642.8906 499.4146,642.8906 Q498.6489,642.8906 498.0083,643.2188 Q497.3833,643.5469 496.8833,644.2969 Q496.3989,645.0469 496.3989,646.0781 L496.3989,647.1719 Q496.3989,648.4063 497.2896,649.2344 Q498.1802,650.0469 499.7739,650.0469 Q500.7114,650.0469 501.3677,649.7969 Q501.7583,649.6406 502.1802,649.2031 Q502.4458,648.9375 502.5864,648.8594 Q502.7427,648.7813 502.9458,648.7813 Q503.2739,648.7813 503.5239,649.0469 Q503.7896,649.2969 503.7896,649.6406 Q503.7896,649.9844 503.4458,650.3906 Q502.9458,650.9688 502.1489,651.2969 Q501.0708,651.75 499.7739,651.75 Q498.2583,651.75 497.0552,651.125 Q496.0708,650.625 495.3833,649.5625 Q494.6958,648.4844 494.6958,647.2031 L494.6958,646.0469 Q494.6958,644.7188 495.3052,643.5781 Q495.9302,642.4219 497.0239,641.8125 Q498.1177,641.1875 499.3521,641.1875 Q500.0864,641.1875 500.7271,641.3594 Q501.3833,641.5156 501.9302,641.875 Z " fill="#000000"/><text fill="#000000" font-family="sans-serif" font-size="14" lengthAdjust="spacing" textLength="54.4824" x="519.6646" y="651.7969">Paciente</text><line style="stroke:#181818;stroke-width:0.5;" x1="288.5" x2="772.8115" y1="662" y2="662"/><text fill="#000000" font-family="sans-serif" font-size="14" lengthAdjust="spacing" textLength="94.9375" x="293.5" y="681.1074">-contato: String</text><line style="stroke:#181818;stroke-width:0.5;" x1="288.5" x2="772.8115" y1="688.6211" y2="688.6211"/><text fill="#000000" font-family="sans-serif" font-size="14" lengthAdjust="spacing" textLength="474.3115" x="293.5" y="707.7285">+Paciente(String nome, String cpf, String contato, String rua, Cidade cidade)</text><text fill="#000000" font-family="sans-serif" font-size="14" lengthAdjust="spacing" textLength="165.3408" x="293.5" y="726.3496">+exibirInformacoes() : void</text><text fill="#000000" font-family="sans-serif" font-size="14" lengthAdjust="spacing" textLength="272.7744" x="293.5" y="744.9707">+agendarConsulta(Consulta consulta) : void</text></g><!--class Agendavel--><g id="elem_Agendavel"><rect codeLine="25" fill="#F1F1F1" height="66.6211" id="Agendavel" rx="2.5" ry="2.5" style="stroke:#181818;stroke-width:0.5;" width="284.7744" x="7" y="849.5"/><ellipse cx="112.0547" cy="865.5" fill="#B4A7E5" rx="11" ry="11" style="stroke:#181818;stroke-width:1.0;"/><path d="M113.0078,862.1406 L113.0078,868.7969 L114.7266,868.7969 Q115.3359,868.7969 115.6016,869.0313 Q115.8672,869.2656 115.8672,869.6563 Q115.8672,870.0313 115.6016,870.2656 Q115.3359,870.5 114.7266,870.5 L109.5859,870.5 Q108.9766,870.5 108.7109,870.2656 Q108.4453,870.0313 108.4453,869.6406 Q108.4453,869.2656 108.7109,869.0313 Q108.9766,868.7969 109.5859,868.7969 L111.3047,868.7969 L111.3047,862.1406 L109.5859,862.1406 Q108.9766,862.1406 108.7109,861.9063 Q108.4453,861.6719 108.4453,861.2813 Q108.4453,860.9063 108.7109,860.6719 Q108.9766,860.4375 109.5859,860.4375 L114.7266,860.4375 Q115.3359,860.4375 115.6016,860.6719 Q115.8672,860.9063 115.8672,861.2813 Q115.8672,861.6719 115.6016,861.9063 Q115.3359,862.1406 114.7266,862.1406 L113.0078,862.1406 Z " fill="#000000"/><text fill="#000000" font-family="sans-serif" font-size="14" font-style="italic" lengthAdjust="spacing" textLength="66.165" x="132.5547" y="871.2969">Agendavel</text><line style="stroke:#181818;stroke-width:0.5;" x1="8" x2="290.7744" y1="881.5" y2="881.5"/><line style="stroke:#181818;stroke-width:0.5;" x1="8" x2="290.7744" y1="889.5" y2="889.5"/><text fill="#000000" font-family="sans-serif" font-size="14" lengthAdjust="spacing" textLength="272.7744" x="13" y="908.6074">+agendarConsulta(Consulta consulta) : void</text></g><!--class Consulta--><g id="elem_Consulta"><rect codeLine="29" fill="#F1F1F1" height="141.1055" id="Consulta" rx="2.5" ry="2.5" style="stroke:#181818;stroke-width:0.5;" width="382.0293" x="121.5" y="410"/><ellipse cx="280.6372" cy="426" fill="#ADD1B2" rx="11" ry="11" style="stroke:#181818;stroke-width:1.0;"/><path d="M283.4028,421.875 Q283.5591,421.6563 283.7466,421.5469 Q283.9341,421.4375 284.1528,421.4375 Q284.5278,421.4375 284.7622,421.7031 Q284.9966,421.9531 284.9966,422.5625 L284.9966,424.0156 Q284.9966,424.625 284.7622,424.8906 Q284.5278,425.1563 284.1528,425.1563 Q283.8091,425.1563 283.606,424.9531 Q283.4028,424.7656 283.2935,424.25 Q283.2466,423.8906 283.0591,423.7031 Q282.731,423.3281 282.1216,423.1094 Q281.5122,422.8906 280.8872,422.8906 Q280.1216,422.8906 279.481,423.2188 Q278.856,423.5469 278.356,424.2969 Q277.8716,425.0469 277.8716,426.0781 L277.8716,427.1719 Q277.8716,428.4063 278.7622,429.2344 Q279.6528,430.0469 281.2466,430.0469 Q282.1841,430.0469 282.8403,429.7969 Q283.231,429.6406 283.6528,429.2031 Q283.9185,428.9375 284.0591,428.8594 Q284.2153,428.7813 284.4185,428.7813 Q284.7466,428.7813 284.9966,429.0469 Q285.2622,429.2969 285.2622,429.6406 Q285.2622,429.9844 284.9185,430.3906 Q284.4185,430.9688 283.6216,431.2969 Q282.5435,431.75 281.2466,431.75 Q279.731,431.75 278.5278,431.125 Q277.5435,430.625 276.856,429.5625 Q276.1685,428.4844 276.1685,427.2031 L276.1685,426.0469 Q276.1685,424.7188 276.7778,423.5781 Q277.4028,422.4219 278.4966,421.8125 Q279.5903,421.1875 280.8247,421.1875 Q281.5591,421.1875 282.1997,421.3594 Q282.856,421.5156 283.4028,421.875 Z " fill="#000000"/><text fill="#000000" font-family="sans-serif" font-size="14" lengthAdjust="spacing" textLength="55.2549" x="301.1372" y="431.7969">Consulta</text><line style="stroke:#181818;stroke-width:0.5;" x1="122.5" x2="502.5293" y1="442" y2="442"/><text fill="#000000" font-family="sans-serif" font-size="14" lengthAdjust="spacing" textLength="80.1514" x="127.5" y="461.1074">-data : String</text><text fill="#000000" font-family="sans-serif" font-size="14" lengthAdjust="spacing" textLength="96.4824" x="127.5" y="479.7285">-horario : String</text><text fill="#000000" font-family="sans-serif" font-size="14" lengthAdjust="spacing" textLength="142.4063" x="127.5" y="498.3496">-prioridade : Prioridade</text><line style="stroke:#181818;stroke-width:0.5;" x1="122.5" x2="502.5293" y1="505.8633" y2="505.8633"/><text fill="#000000" font-family="sans-serif" font-size="14" lengthAdjust="spacing" textLength="232.2852" x="127.5" y="524.9707">+Consulta(String data, String horario)</text><text fill="#000000" font-family="sans-serif" font-size="14" lengthAdjust="spacing" textLength="370.0293" x="127.5" y="543.5918">+Consulta(String data, String horario, Prioridade prioridade)</text></g><!--class Endereco--><g id="elem_Endereco"><rect codeLine="37" fill="#F1F1F1" height="103.8633" id="Endereco" rx="2.5" ry="2.5" style="stroke:#181818;stroke-width:0.5;" width="247.416" x="407" y="831"/><ellipse cx="496.4927" cy="847" fill="#ADD1B2" rx="11" ry="11" style="stroke:#181818;stroke-width:1.0;"/><path d="M499.2583,842.875 Q499.4146,842.6563 499.6021,842.5469 Q499.7896,842.4375 500.0083,842.4375 Q500.3833,842.4375 500.6177,842.7031 Q500.8521,842.9531 500.8521,843.5625 L500.8521,845.0156 Q500.8521,845.625 500.6177,845.8906 Q500.3833,846.1563 500.0083,846.1563 Q499.6646,846.1563 499.4614,845.9531 Q499.2583,845.7656 499.1489,845.25 Q499.1021,844.8906 498.9146,844.7031 Q498.5864,844.3281 497.9771,844.1094 Q497.3677,843.8906 496.7427,843.8906 Q495.9771,843.8906 495.3364,844.2188 Q494.7114,844.5469 494.2114,845.2969 Q493.7271,846.0469 493.7271,847.0781 L493.7271,848.1719 Q493.7271,849.4063 494.6177,850.2344 Q495.5083,851.0469 497.1021,851.0469 Q498.0396,851.0469 498.6958,850.7969 Q499.0864,850.6406 499.5083,850.2031 Q499.7739,849.9375 499.9146,849.8594 Q500.0708,849.7813 500.2739,849.7813 Q500.6021,849.7813 500.8521,850.0469 Q501.1177,850.2969 501.1177,850.6406 Q501.1177,850.9844 500.7739,851.3906 Q500.2739,851.9688 499.4771,852.2969 Q498.3989,852.75 497.1021,852.75 Q495.5864,852.75 494.3833,852.125 Q493.3989,851.625 492.7114,850.5625 Q492.0239,849.4844 492.0239,848.2031 L492.0239,847.0469 Q492.0239,845.7188 492.6333,844.5781 Q493.2583,843.4219 494.3521,842.8125 Q495.4458,842.1875 496.6802,842.1875 Q497.4146,842.1875 498.0552,842.3594 Q498.7114,842.5156 499.2583,842.875 Z " fill="#000000"/><text fill="#000000" font-family="sans-serif" font-size="14" lengthAdjust="spacing" textLength="59.9307" x="516.9927" y="852.7969">Endereco</text><line style="stroke:#181818;stroke-width:0.5;" x1="408" x2="653.416" y1="863" y2="863"/><text fill="#000000" font-family="sans-serif" font-size="14" lengthAdjust="spacing" textLength="73.1377" x="413" y="882.1074">-rua : String</text><text fill="#000000" font-family="sans-serif" font-size="14" lengthAdjust="spacing" textLength="133.0547" x="413" y="900.7285">-complemento: String</text><line style="stroke:#181818;stroke-width:0.5;" x1="408" x2="653.416" y1="908.2422" y2="908.2422"/><text fill="#000000" font-family="sans-serif" font-size="14" lengthAdjust="spacing" textLength="235.416" x="413" y="927.3496">+Endereco(String rua, Cidade cidade)</text></g><!--class Cidade--><g id="elem_Cidade"><rect codeLine="43" fill="#F1F1F1" height="103.8633" id="Cidade" rx="2.5" ry="2.5" style="stroke:#181818;stroke-width:0.5;" width="209.2646" x="426" y="1014"/><ellipse cx="504.1997" cy="1030" fill="#ADD1B2" rx="11" ry="11" style="stroke:#181818;stroke-width:1.0;"/><path d="M506.9653,1025.875 Q507.1216,1025.6563 507.3091,1025.5469 Q507.4966,1025.4375 507.7153,1025.4375 Q508.0903,1025.4375 508.3247,1025.7031 Q508.5591,1025.9531 508.5591,1026.5625 L508.5591,1028.0156 Q508.5591,1028.625 508.3247,1028.8906 Q508.0903,1029.1563 507.7153,1029.1563 Q507.3716,1029.1563 507.1685,1028.9531 Q506.9653,1028.7656 506.856,1028.25 Q506.8091,1027.8906 506.6216,1027.7031 Q506.2935,1027.3281 505.6841,1027.1094 Q505.0747,1026.8906 504.4497,1026.8906 Q503.6841,1026.8906 503.0435,1027.2188 Q502.4185,1027.5469 501.9185,1028.2969 Q501.4341,1029.0469 501.4341,1030.0781 L501.4341,1031.1719 Q501.4341,1032.4063 502.3247,1033.2344 Q503.2153,1034.0469 504.8091,1034.0469 Q505.7466,1034.0469 506.4028,1033.7969 Q506.7935,1033.6406 507.2153,1033.2031 Q507.481,1032.9375 507.6216,1032.8594 Q507.7778,1032.7813 507.981,1032.7813 Q508.3091,1032.7813 508.5591,1033.0469 Q508.8247,1033.2969 508.8247,1033.6406 Q508.8247,1033.9844 508.481,1034.3906 Q507.981,1034.9688 507.1841,1035.2969 Q506.106,1035.75 504.8091,1035.75 Q503.2935,1035.75 502.0903,1035.125 Q501.106,1034.625 500.4185,1033.5625 Q499.731,1032.4844 499.731,1031.2031 L499.731,1030.0469 Q499.731,1028.7188 500.3403,1027.5781 Q500.9653,1026.4219 502.0591,1025.8125 Q503.1528,1025.1875 504.3872,1025.1875 Q505.1216,1025.1875 505.7622,1025.3594 Q506.4185,1025.5156 506.9653,1025.875 Z " fill="#000000"/><text fill="#000000" font-family="sans-serif" font-size="14" lengthAdjust="spacing" textLength="44.3652" x="524.6997" y="1035.7969">Cidade</text><line style="stroke:#181818;stroke-width:0.5;" x1="427" x2="634.2646" y1="1046" y2="1046"/><text fill="#000000" font-family="sans-serif" font-size="14" lengthAdjust="spacing" textLength="87.9238" x="432" y="1065.1074">-nome : String</text><text fill="#000000" font-family="sans-serif" font-size="14" lengthAdjust="spacing" textLength="64.5791" x="432" y="1083.7285">-uf : String</text><line style="stroke:#181818;stroke-width:0.5;" x1="427" x2="634.2646" y1="1091.2422" y2="1091.2422"/><text fill="#000000" font-family="sans-serif" font-size="14" lengthAdjust="spacing" textLength="197.2646" x="432" y="1110.3496">+Cidade(String nome, String uf)</text></g><!--class Prioridade--><g id="elem_Prioridade"><rect codeLine="49" fill="#F1F1F1" height="122.4844" id="Prioridade" rx="2.5" ry="2.5" style="stroke:#181818;stroke-width:0.5;" width="105.3994" x="147" y="630"/><ellipse cx="166.3137" cy="646" fill="#EB937F" rx="11" ry="11" style="stroke:#181818;stroke-width:1.0;"/><path d="M165.173,646.7969 L165.173,649.2969 L169.5012,649.2969 L169.5012,648.375 Q169.5012,647.7656 169.7355,647.5 Q169.9855,647.2344 170.3605,647.2344 Q170.7355,647.2344 170.9699,647.5 Q171.2043,647.7656 171.2043,648.375 L171.2043,651 L163.2043,651 Q162.5793,651 162.3137,650.7656 Q162.0637,650.5313 162.0637,650.1406 Q162.0637,649.7656 162.3293,649.5313 Q162.5949,649.2969 163.2043,649.2969 L163.4699,649.2969 L163.4699,642.6406 L163.2043,642.6406 Q162.5793,642.6406 162.3137,642.4063 Q162.0637,642.1719 162.0637,641.7813 Q162.0637,641.4063 162.3137,641.1719 Q162.5793,640.9375 163.2043,640.9375 L170.8293,640.9375 L170.8293,643.5313 Q170.8293,644.1406 170.5949,644.4063 Q170.3762,644.6563 169.9855,644.6563 Q169.6105,644.6563 169.3762,644.4063 Q169.1418,644.1406 169.1418,643.5313 L169.1418,642.6406 L165.173,642.6406 L165.173,645.0938 L166.6574,645.0938 Q166.6574,644.4375 166.7824,644.25 Q167.048,643.8438 167.5168,643.8438 Q167.8918,643.8438 168.1262,644.1094 Q168.3605,644.3594 168.3605,644.9688 L168.3605,646.9375 Q168.3605,647.4844 168.2355,647.6719 Q167.9699,648.0625 167.5168,648.0625 Q167.048,648.0625 166.7824,647.6563 Q166.6574,647.4688 166.6574,646.7969 L165.173,646.7969 Z " fill="#000000"/><text fill="#000000" font-family="sans-serif" font-size="14" lengthAdjust="spacing" textLength="63.8135" x="181.2723" y="651.7969">Prioridade</text><line style="stroke:#181818;stroke-width:0.5;" x1="148" x2="251.3994" y1="662" y2="662"/><text fill="#000000" font-family="sans-serif" font-size="14" lengthAdjust="spacing" textLength="93.3994" x="153" y="681.1074">&#171;enumeration&#187;</text><text fill="#000000" font-family="sans-serif" font-size="14" lengthAdjust="spacing" textLength="35.0137" x="153" y="699.7285">ALTA</text><text fill="#000000" font-family="sans-serif" font-size="14" lengthAdjust="spacing" textLength="44.3379" x="153" y="718.3496">MEDIA</text><text fill="#000000" font-family="sans-serif" font-size="14" lengthAdjust="spacing" textLength="41.2412" x="153" y="736.9707">BAIXA</text><line style="stroke:#181818;stroke-width:0.5;" x1="148" x2="251.3994" y1="744.4844" y2="744.4844"/></g><!--reverse link Pessoa to Medico--><g id="link_Pessoa_Medico"><path codeLine="56" d="M372.6682,143.8053 C359.2882,163.1153 354.61,169.87 340.79,189.81 " fill="none" id="Pessoa-backto-Medico" style="stroke:#181818;stroke-width:1.0;"/><polygon fill="none" points="382.92,129.01,367.7365,140.3881,377.6,147.2226,382.92,129.01" style="stroke:#181818;stroke-width:1.0;"/></g><!--reverse link Pessoa to Paciente--><g id="link_Pessoa_Paciente"><path codeLine="57" d="M496.6501,143.1009 C511.2401,161.1909 513.58,168.1 521.5,190 C575.88,340.44 556.65,533.33 541.59,629.64 " fill="none" id="Pessoa-backto-Paciente" style="stroke:#181818;stroke-width:1.0;"/><polygon fill="none" points="485.35,129.09,491.9798,146.8677,501.3205,139.3342,485.35,129.09" style="stroke:#181818;stroke-width:1.0;"/></g><!--link Medico to Agendavel--><g id="link_Medico_Agendavel"><path codeLine="58" d="M170.47,331.01 C143.53,352.61 118.55,379.04 103.5,410 C30.35,560.51 95.5076,752.9012 128.2876,832.6612 " fill="none" id="Medico-to-Agendavel" style="stroke:#181818;stroke-width:1.0;stroke-dasharray:7.0,7.0;"/><polygon fill="none" points="135.13,849.31,133.8372,830.3804,122.738,834.942,135.13,849.31" style="stroke:#181818;stroke-width:1.0;"/></g><!--link Paciente to Agendavel--><g id="link_Paciente_Agendavel"><path codeLine="59" d="M409.95,752.12 C345.31,784.35 284.2981,814.777 230.8381,841.437 " fill="none" id="Paciente-to-Agendavel" style="stroke:#181818;stroke-width:1.0;stroke-dasharray:7.0,7.0;"/><polygon fill="none" points="214.73,849.47,233.5158,846.8064,228.1605,836.0677,214.73,849.47" style="stroke:#181818;stroke-width:1.0;"/></g><!--link Consulta to Prioridade--><g id="link_Consulta_Prioridade"><path codeLine="60" d="M274.72,551.22 C260.92,576.67 248.3097,599.9453 234.9997,624.4953 " fill="none" id="Consulta-to-Prioridade" style="stroke:#181818;stroke-width:1.0;"/><polygon fill="#181818" points="232.14,629.77,239.946,623.7645,234.5231,625.3744,232.9131,619.9515,232.14,629.77" style="stroke:#181818;stroke-width:1.0;"/><text fill="#000000" font-family="sans-serif" font-size="13" lengthAdjust="spacing" textLength="35.4199" x="257.5" y="596.0283">define</text></g><!--link Consulta to Paciente--><g id="link_Consulta_Paciente"><path codeLine="61" d="M385.39,551.22 C412.01,576.67 441.86,605.22 467.53,629.77 " fill="none" id="Consulta-Paciente" style="stroke:#181818;stroke-width:1.0;"/><text fill="#000000" font-family="sans-serif" font-size="13" lengthAdjust="spacing" textLength="26.019" x="435.5" y="596.0283">para</text><text fill="#000000" font-family="sans-serif" font-size="13" lengthAdjust="spacing" textLength="78.0444" x="310.7268" y="573.0557">consultas 1..*</text><text fill="#000000" font-family="sans-serif" font-size="13" lengthAdjust="spacing" textLength="7.23" x="452.8397" y="618.7246">1</text></g><!--link Paciente to Endereco--><g id="link_Paciente_Endereco"><path codeLine="62" d="M530.5,764.12 C530.5,789.45 530.5,800.62 530.5,824.9 " fill="none" id="Paciente-Endereco" style="stroke:#181818;stroke-width:1.0;"/><polygon fill="#181818" points="530.5,752.12,526.5,758.12,530.5,764.12,534.5,758.12,530.5,752.12" style="stroke:#181818;stroke-width:1.0;"/><polygon fill="#181818" points="530.5,830.9,534.5,821.9,530.5,825.9,526.5,821.9,530.5,830.9" style="stroke:#181818;stroke-width:1.0;"/><text fill="#000000" font-family="sans-serif" font-size="13" lengthAdjust="spacing" textLength="37.5781" x="531.5" y="797.0283">possui</text><text fill="#000000" font-family="sans-serif" font-size="13" lengthAdjust="spacing" textLength="7.23" x="523.0685" y="774.6215">1</text><text fill="#000000" font-family="sans-serif" font-size="13" lengthAdjust="spacing" textLength="7.23" x="523.0172" y="819.8139">1</text></g><!--link Endereco to Cidade--><g id="link_Endereco_Cidade"><path codeLine="63" d="M530.5,935.38 C530.5,959.94 530.5,983.26 530.5,1007.8 " fill="none" id="Endereco-to-Cidade" style="stroke:#181818;stroke-width:1.0;"/><polygon fill="#181818" points="530.5,1013.8,534.5,1004.8,530.5,1008.8,526.5,1004.8,530.5,1013.8" style="stroke:#181818;stroke-width:1.0;"/><text fill="#000000" font-family="sans-serif" font-size="13" lengthAdjust="spacing" textLength="79.4854" x="531.5" y="980.0283">localizado em</text><text fill="#000000" font-family="sans-serif" font-size="13" lengthAdjust="spacing" textLength="7.23" x="523.0621" y="956.8541">1</text><text fill="#000000" font-family="sans-serif" font-size="13" lengthAdjust="spacing" textLength="7.23" x="523.0274" y="1002.7005">1</text></g><!--reverse link Medico to Consulta--><g id="link_Medico_Consulta"><path codeLine="65" d="M299.9767,343.0298 C302.2867,368.1998 303.8,384.66 306.11,409.84 " fill="none" id="Medico-backto-Consulta" style="stroke:#181818;stroke-width:1.0;"/><polygon fill="none" points="298.88,331.08,295.4451,337.4205,299.9767,343.0298,303.4116,336.6893,298.88,331.08" style="stroke:#181818;stroke-width:1.0;"/><text fill="#000000" font-family="sans-serif" font-size="13" lengthAdjust="spacing" textLength="38.2954" x="303.5" y="376.0283">realiza</text><text fill="#000000" font-family="sans-serif" font-size="13" lengthAdjust="spacing" textLength="7.23" x="292.1653" y="353.273">1</text><text fill="#000000" font-family="sans-serif" font-size="13" lengthAdjust="spacing" textLength="78.0444" x="223.4299" y="398.7145">consultas 0..*</text></g><!--SRC=[jLJ1Rjim3BthAmJr4dTnq5wB882NzX2W1G9qXrqPcUw4sf8XoKNHTly-oP9bn-aoRC1oCSMyHpvIfCopa2reQ2YlmPZ2MYqEdSKTL_9Hl26z8WGEnchWDa3e7erHGDy9TR-SIjKWlQ6FZYYVee-trR7hIsGjWgydBIF0exCUTK7nLHo4tibAwGQuGhF8NA0N9Khoav2G_m5BmLNAZwP5Bg0M9PIdGdGp5nBelnEIxAEm8q8tMOnpHce0m1FA4lHMITFL5XQ3GNaqJalR0nSeBQRY7DI2LVDUHjWVYuZqTDOTBEasT8htd_zJZN3YT0KSQT7JNh2E9VrJMn9aQ4i9xZ2xwXzAWnPgxcwTJm-piK-7A2QfY0toWLEtOiJiBx3BIOf9wcoivKwMg74ol-vEJgPMDMsDZRlY-SqFxCMP2ntR5lpd5hKxsTD0-dIokgeFZh9hfcM6-EkrzwC6AvJSR7fVSV-jw8s7kzjTiBuMk- -5Zn9VaVL7diULF78D8qxYjgzM7vjnc4XQb9a_JKgURwOQRoWhiH8IsGXXmy0PUhrQNJB7eUoQZKleIFvfP6Cs__Ub3-sDT9CUfupf12F9vm43S9iqr8gx5-KDIaMnOMGepeEKppugkkeL9QsEgx6diby0]--></g></svg>