<svg xmlns="http://www.w3.org/2000/svg" xmlns:xlink="http://www.w3.org/1999/xlink" contentStyleType="text/css" height="1051px" preserveAspectRatio="none" style="width:1251px;height:1051px;background:#FFFFFF;" version="1.1" viewBox="0 0 1251 1051" width="1251px" zoomAndPan="magnify"><defs/><g><!--class Agendavel--><g id="elem_Agendavel"><rect codeLine="3" fill="#F1F1F1" height="66.6211" id="Agendavel" rx="2.5" ry="2.5" style="stroke:#181818;stroke-width:0.5;" width="284.7744" x="309.5" y="34.5"/><ellipse cx="414.5547" cy="50.5" fill="#B4A7E5" rx="11" ry="11" style="stroke:#181818;stroke-width:1.0;"/><path d="M415.5078,47.1406 L415.5078,53.7969 L417.2266,53.7969 Q417.8359,53.7969 418.1016,54.0313 Q418.3672,54.2656 418.3672,54.6563 Q418.3672,55.0313 418.1016,55.2656 Q417.8359,55.5 417.2266,55.5 L412.0859,55.5 Q411.4766,55.5 411.2109,55.2656 Q410.9453,55.0313 410.9453,54.6406 Q410.9453,54.2656 411.2109,54.0313 Q411.4766,53.7969 412.0859,53.7969 L413.8047,53.7969 L413.8047,47.1406 L412.0859,47.1406 Q411.4766,47.1406 411.2109,46.9063 Q410.9453,46.6719 410.9453,46.2813 Q410.9453,45.9063 411.2109,45.6719 Q411.4766,45.4375 412.0859,45.4375 L417.2266,45.4375 Q417.8359,45.4375 418.1016,45.6719 Q418.3672,45.9063 418.3672,46.2813 Q418.3672,46.6719 418.1016,46.9063 Q417.8359,47.1406 417.2266,47.1406 L415.5078,47.1406 Z " fill="#000000"/><text fill="#000000" font-family="sans-serif" font-size="14" font-style="italic" lengthAdjust="spacing" textLength="66.165" x="435.0547" y="56.2969">Agendavel</text><line style="stroke:#181818;stroke-width:0.5;" x1="310.5" x2="593.2744" y1="66.5" y2="66.5"/><line style="stroke:#181818;stroke-width:0.5;" x1="310.5" x2="593.2744" y1="74.5" y2="74.5"/><text fill="#000000" font-family="sans-serif" font-size="14" lengthAdjust="spacing" textLength="272.7744" x="315.5" y="93.6074">+agendarConsulta(Consulta consulta) : void</text></g><!--class Pessoa--><g id="elem_Pessoa"><rect codeLine="7" fill="#F1F1F1" height="122.4844" id="Pessoa" rx="2.5" ry="2.5" style="stroke:#181818;stroke-width:0.5;" width="218.5957" x="648.5" y="7"/><ellipse cx="730.1997" cy="23" fill="#ADD1B2" rx="11" ry="11" style="stroke:#181818;stroke-width:1.0;"/><path d="M732.9653,18.875 Q733.1216,18.6563 733.3091,18.5469 Q733.4966,18.4375 733.7153,18.4375 Q734.0903,18.4375 734.3247,18.7031 Q734.5591,18.9531 734.5591,19.5625 L734.5591,21.0156 Q734.5591,21.625 734.3247,21.8906 Q734.0903,22.1563 733.7153,22.1563 Q733.3716,22.1563 733.1685,21.9531 Q732.9653,21.7656 732.856,21.25 Q732.8091,20.8906 732.6216,20.7031 Q732.2935,20.3281 731.6841,20.1094 Q731.0747,19.8906 730.4497,19.8906 Q729.6841,19.8906 729.0435,20.2188 Q728.4185,20.5469 727.9185,21.2969 Q727.4341,22.0469 727.4341,23.0781 L727.4341,24.1719 Q727.4341,25.4063 728.3247,26.2344 Q729.2153,27.0469 730.8091,27.0469 Q731.7466,27.0469 732.4028,26.7969 Q732.7935,26.6406 733.2153,26.2031 Q733.481,25.9375 733.6216,25.8594 Q733.7778,25.7813 733.981,25.7813 Q734.3091,25.7813 734.5591,26.0469 Q734.8247,26.2969 734.8247,26.6406 Q734.8247,26.9844 734.481,27.3906 Q733.981,27.9688 733.1841,28.2969 Q732.106,28.75 730.8091,28.75 Q729.2935,28.75 728.0903,28.125 Q727.106,27.625 726.4185,26.5625 Q725.731,25.4844 725.731,24.2031 L725.731,23.0469 Q725.731,21.7188 726.3403,20.5781 Q726.9653,19.4219 728.0591,18.8125 Q729.1528,18.1875 730.3872,18.1875 Q731.1216,18.1875 731.7622,18.3594 Q732.4185,18.5156 732.9653,18.875 Z " fill="#000000"/><text fill="#000000" font-family="sans-serif" font-size="14" lengthAdjust="spacing" textLength="46.6963" x="750.6997" y="28.7969">Pessoa</text><line style="stroke:#181818;stroke-width:0.5;" x1="649.5" x2="866.0957" y1="39" y2="39"/><text fill="#000000" font-family="sans-serif" font-size="14" lengthAdjust="spacing" textLength="87.9238" x="654.5" y="58.1074">-nome : String</text><text fill="#000000" font-family="sans-serif" font-size="14" lengthAdjust="spacing" textLength="71.5791" x="654.5" y="76.7285">-cpf : String</text><line style="stroke:#181818;stroke-width:0.5;" x1="649.5" x2="866.0957" y1="84.2422" y2="84.2422"/><text fill="#000000" font-family="sans-serif" font-size="14" lengthAdjust="spacing" textLength="206.5957" x="654.5" y="103.3496">+Pessoa(String nome, String cpf)</text><text fill="#000000" font-family="sans-serif" font-size="14" lengthAdjust="spacing" textLength="165.3408" x="654.5" y="121.9707">+exibirInformacoes() : void</text></g><!--class Medico--><g id="elem_Medico"><rect codeLine="14" fill="#F1F1F1" height="159.7266" id="Medico" rx="2.5" ry="2.5" style="stroke:#181818;stroke-width:0.5;" width="422.457" x="125" y="190"/><ellipse cx="309.4131" cy="206" fill="#ADD1B2" rx="11" ry="11" style="stroke:#181818;stroke-width:1.0;"/><path d="M312.1787,201.875 Q312.335,201.6563 312.5225,201.5469 Q312.71,201.4375 312.9287,201.4375 Q313.3037,201.4375 313.5381,201.7031 Q313.7725,201.9531 313.7725,202.5625 L313.7725,204.0156 Q313.7725,204.625 313.5381,204.8906 Q313.3037,205.1563 312.9287,205.1563 Q312.585,205.1563 312.3818,204.9531 Q312.1787,204.7656 312.0693,204.25 Q312.0225,203.8906 311.835,203.7031 Q311.5068,203.3281 310.8975,203.1094 Q310.2881,202.8906 309.6631,202.8906 Q308.8975,202.8906 308.2568,203.2188 Q307.6318,203.5469 307.1318,204.2969 Q306.6475,205.0469 306.6475,206.0781 L306.6475,207.1719 Q306.6475,208.4063 307.5381,209.2344 Q308.4287,210.0469 310.0225,210.0469 Q310.96,210.0469 311.6162,209.7969 Q312.0068,209.6406 312.4287,209.2031 Q312.6943,208.9375 312.835,208.8594 Q312.9912,208.7813 313.1943,208.7813 Q313.5225,208.7813 313.7725,209.0469 Q314.0381,209.2969 314.0381,209.6406 Q314.0381,209.9844 313.6943,210.3906 Q313.1943,210.9688 312.3975,211.2969 Q311.3193,211.75 310.0225,211.75 Q308.5068,211.75 307.3037,211.125 Q306.3193,210.625 305.6318,209.5625 Q304.9443,208.4844 304.9443,207.2031 L304.9443,206.0469 Q304.9443,204.7188 305.5537,203.5781 Q306.1787,202.4219 307.2725,201.8125 Q308.3662,201.1875 309.6006,201.1875 Q310.335,201.1875 310.9756,201.3594 Q311.6318,201.5156 312.1787,201.875 Z " fill="#000000"/><text fill="#000000" font-family="sans-serif" font-size="14" lengthAdjust="spacing" textLength="45.1309" x="329.9131" y="211.7969">Medico</text><line style="stroke:#181818;stroke-width:0.5;" x1="126" x2="546.457" y1="222" y2="222"/><text fill="#000000" font-family="sans-serif" font-size="14" lengthAdjust="spacing" textLength="138.5234" x="131" y="241.1074">-especialidade : String</text><text fill="#000000" font-family="sans-serif" font-size="14" lengthAdjust="spacing" textLength="76.2275" x="131" y="259.7285">-crm : String</text><line style="stroke:#181818;stroke-width:0.5;" x1="126" x2="546.457" y1="267.2422" y2="267.2422"/><text fill="#000000" font-family="sans-serif" font-size="14" lengthAdjust="spacing" textLength="410.457" x="131" y="286.3496">+Medico(String nome, String cpf, String especialidade, String crm)</text><text fill="#000000" font-family="sans-serif" font-size="14" lengthAdjust="spacing" textLength="278.209" x="131" y="304.9707">+adicionarConsulta(Consulta consulta) : void</text><text fill="#000000" font-family="sans-serif" font-size="14" lengthAdjust="spacing" textLength="272.7744" x="131" y="323.5918">+agendarConsulta(Consulta consulta) : void</text><text fill="#000000" font-family="sans-serif" font-size="14" lengthAdjust="spacing" textLength="165.3408" x="131" y="342.2129">+exibirInformacoes() : void</text></g><!--class Paciente--><g id="elem_Paciente"><rect codeLine="23" fill="#F1F1F1" height="122.4844" id="Paciente" rx="2.5" ry="2.5" style="stroke:#181818;stroke-width:0.5;" width="392.1465" x="582" y="209"/><ellipse cx="746.582" cy="225" fill="#ADD1B2" rx="11" ry="11" style="stroke:#181818;stroke-width:1.0;"/><path d="M749.3477,220.875 Q749.5039,220.6563 749.6914,220.5469 Q749.8789,220.4375 750.0977,220.4375 Q750.4727,220.4375 750.707,220.7031 Q750.9414,220.9531 750.9414,221.5625 L750.9414,223.0156 Q750.9414,223.625 750.707,223.8906 Q750.4727,224.1563 750.0977,224.1563 Q749.7539,224.1563 749.5508,223.9531 Q749.3477,223.7656 749.2383,223.25 Q749.1914,222.8906 749.0039,222.7031 Q748.6758,222.3281 748.0664,222.1094 Q747.457,221.8906 746.832,221.8906 Q746.0664,221.8906 745.4258,222.2188 Q744.8008,222.5469 744.3008,223.2969 Q743.8164,224.0469 743.8164,225.0781 L743.8164,226.1719 Q743.8164,227.4063 744.707,228.2344 Q745.5977,229.0469 747.1914,229.0469 Q748.1289,229.0469 748.7852,228.7969 Q749.1758,228.6406 749.5977,228.2031 Q749.8633,227.9375 750.0039,227.8594 Q750.1602,227.7813 750.3633,227.7813 Q750.6914,227.7813 750.9414,228.0469 Q751.207,228.2969 751.207,228.6406 Q751.207,228.9844 750.8633,229.3906 Q750.3633,229.9688 749.5664,230.2969 Q748.4883,230.75 747.1914,230.75 Q745.6758,230.75 744.4727,230.125 Q743.4883,229.625 742.8008,228.5625 Q742.1133,227.4844 742.1133,226.2031 L742.1133,225.0469 Q742.1133,223.7188 742.7227,222.5781 Q743.3477,221.4219 744.4414,220.8125 Q745.5352,220.1875 746.7695,220.1875 Q747.5039,220.1875 748.1445,220.3594 Q748.8008,220.5156 749.3477,220.875 Z " fill="#000000"/><text fill="#000000" font-family="sans-serif" font-size="14" lengthAdjust="spacing" textLength="54.4824" x="767.082" y="230.7969">Paciente</text><line style="stroke:#181818;stroke-width:0.5;" x1="583" x2="973.1465" y1="241" y2="241"/><text fill="#000000" font-family="sans-serif" font-size="14" lengthAdjust="spacing" textLength="94.9375" x="588" y="260.1074">-contato: String</text><line style="stroke:#181818;stroke-width:0.5;" x1="583" x2="973.1465" y1="267.6211" y2="267.6211"/><text fill="#000000" font-family="sans-serif" font-size="14" lengthAdjust="spacing" textLength="380.1465" x="588" y="286.7285">+Paciente(String nome, String cpf, String rua, Cidade cidade)</text><text fill="#000000" font-family="sans-serif" font-size="14" lengthAdjust="spacing" textLength="272.7744" x="588" y="305.3496">+agendarConsulta(Consulta consulta) : void</text><text fill="#000000" font-family="sans-serif" font-size="14" lengthAdjust="spacing" textLength="165.3408" x="588" y="323.9707">+exibirInformacoes() : void</text></g><!--class Endereco--><g id="elem_Endereco"><rect codeLine="30" fill="#F1F1F1" height="103.8633" id="Endereco" rx="2.5" ry="2.5" style="stroke:#181818;stroke-width:0.5;" width="247.416" x="700.5" y="429"/><ellipse cx="789.9927" cy="445" fill="#ADD1B2" rx="11" ry="11" style="stroke:#181818;stroke-width:1.0;"/><path d="M792.7583,440.875 Q792.9146,440.6563 793.1021,440.5469 Q793.2896,440.4375 793.5083,440.4375 Q793.8833,440.4375 794.1177,440.7031 Q794.3521,440.9531 794.3521,441.5625 L794.3521,443.0156 Q794.3521,443.625 794.1177,443.8906 Q793.8833,444.1563 793.5083,444.1563 Q793.1646,444.1563 792.9614,443.9531 Q792.7583,443.7656 792.6489,443.25 Q792.6021,442.8906 792.4146,442.7031 Q792.0864,442.3281 791.4771,442.1094 Q790.8677,441.8906 790.2427,441.8906 Q789.4771,441.8906 788.8364,442.2188 Q788.2114,442.5469 787.7114,443.2969 Q787.2271,444.0469 787.2271,445.0781 L787.2271,446.1719 Q787.2271,447.4063 788.1177,448.2344 Q789.0083,449.0469 790.6021,449.0469 Q791.5396,449.0469 792.1958,448.7969 Q792.5864,448.6406 793.0083,448.2031 Q793.2739,447.9375 793.4146,447.8594 Q793.5708,447.7813 793.7739,447.7813 Q794.1021,447.7813 794.3521,448.0469 Q794.6177,448.2969 794.6177,448.6406 Q794.6177,448.9844 794.2739,449.3906 Q793.7739,449.9688 792.9771,450.2969 Q791.8989,450.75 790.6021,450.75 Q789.0864,450.75 787.8833,450.125 Q786.8989,449.625 786.2114,448.5625 Q785.5239,447.4844 785.5239,446.2031 L785.5239,445.0469 Q785.5239,443.7188 786.1333,442.5781 Q786.7583,441.4219 787.8521,440.8125 Q788.9458,440.1875 790.1802,440.1875 Q790.9146,440.1875 791.5552,440.3594 Q792.2114,440.5156 792.7583,440.875 Z " fill="#000000"/><text fill="#000000" font-family="sans-serif" font-size="14" lengthAdjust="spacing" textLength="59.9307" x="810.4927" y="450.7969">Endereco</text><line style="stroke:#181818;stroke-width:0.5;" x1="701.5" x2="946.916" y1="461" y2="461"/><text fill="#000000" font-family="sans-serif" font-size="14" lengthAdjust="spacing" textLength="73.1377" x="706.5" y="480.1074">-rua : String</text><text fill="#000000" font-family="sans-serif" font-size="14" lengthAdjust="spacing" textLength="133.0547" x="706.5" y="498.7285">-complemento: String</text><line style="stroke:#181818;stroke-width:0.5;" x1="701.5" x2="946.916" y1="506.2422" y2="506.2422"/><text fill="#000000" font-family="sans-serif" font-size="14" lengthAdjust="spacing" textLength="235.416" x="706.5" y="525.3496">+Endereco(String rua, Cidade cidade)</text></g><!--class Cidade--><g id="elem_Cidade"><rect codeLine="36" fill="#F1F1F1" height="103.8633" id="Cidade" rx="2.5" ry="2.5" style="stroke:#181818;stroke-width:0.5;" width="209.2646" x="719.5" y="612"/><ellipse cx="797.6997" cy="628" fill="#ADD1B2" rx="11" ry="11" style="stroke:#181818;stroke-width:1.0;"/><path d="M800.4653,623.875 Q800.6216,623.6563 800.8091,623.5469 Q800.9966,623.4375 801.2153,623.4375 Q801.5903,623.4375 801.8247,623.7031 Q802.0591,623.9531 802.0591,624.5625 L802.0591,626.0156 Q802.0591,626.625 801.8247,626.8906 Q801.5903,627.1563 801.2153,627.1563 Q800.8716,627.1563 800.6685,626.9531 Q800.4653,626.7656 800.356,626.25 Q800.3091,625.8906 800.1216,625.7031 Q799.7935,625.3281 799.1841,625.1094 Q798.5747,624.8906 797.9497,624.8906 Q797.1841,624.8906 796.5435,625.2188 Q795.9185,625.5469 795.4185,626.2969 Q794.9341,627.0469 794.9341,628.0781 L794.9341,629.1719 Q794.9341,630.4063 795.8247,631.2344 Q796.7153,632.0469 798.3091,632.0469 Q799.2466,632.0469 799.9028,631.7969 Q800.2935,631.6406 800.7153,631.2031 Q800.981,630.9375 801.1216,630.8594 Q801.2778,630.7813 801.481,630.7813 Q801.8091,630.7813 802.0591,631.0469 Q802.3247,631.2969 802.3247,631.6406 Q802.3247,631.9844 801.981,632.3906 Q801.481,632.9688 800.6841,633.2969 Q799.606,633.75 798.3091,633.75 Q796.7935,633.75 795.5903,633.125 Q794.606,632.625 793.9185,631.5625 Q793.231,630.4844 793.231,629.2031 L793.231,628.0469 Q793.231,626.7188 793.8403,625.5781 Q794.4653,624.4219 795.5591,623.8125 Q796.6528,623.1875 797.8872,623.1875 Q798.6216,623.1875 799.2622,623.3594 Q799.9185,623.5156 800.4653,623.875 Z " fill="#000000"/><text fill="#000000" font-family="sans-serif" font-size="14" lengthAdjust="spacing" textLength="44.3652" x="818.1997" y="633.7969">Cidade</text><line style="stroke:#181818;stroke-width:0.5;" x1="720.5" x2="927.7646" y1="644" y2="644"/><text fill="#000000" font-family="sans-serif" font-size="14" lengthAdjust="spacing" textLength="87.9238" x="725.5" y="663.1074">-nome : String</text><text fill="#000000" font-family="sans-serif" font-size="14" lengthAdjust="spacing" textLength="64.5791" x="725.5" y="681.7285">-uf : String</text><line style="stroke:#181818;stroke-width:0.5;" x1="720.5" x2="927.7646" y1="689.2422" y2="689.2422"/><text fill="#000000" font-family="sans-serif" font-size="14" lengthAdjust="spacing" textLength="197.2646" x="725.5" y="708.3496">+Cidade(String nome, String uf)</text></g><!--class Consulta--><g id="elem_Consulta"><rect codeLine="42" fill="#F1F1F1" height="103.8633" id="Consulta" rx="2.5" ry="2.5" style="stroke:#181818;stroke-width:0.5;" width="658.2969" x="7" y="429"/><ellipse cx="304.271" cy="445" fill="#ADD1B2" rx="11" ry="11" style="stroke:#181818;stroke-width:1.0;"/><path d="M307.0366,440.875 Q307.1929,440.6563 307.3804,440.5469 Q307.5679,440.4375 307.7866,440.4375 Q308.1616,440.4375 308.396,440.7031 Q308.6304,440.9531 308.6304,441.5625 L308.6304,443.0156 Q308.6304,443.625 308.396,443.8906 Q308.1616,444.1563 307.7866,444.1563 Q307.4429,444.1563 307.2397,443.9531 Q307.0366,443.7656 306.9272,443.25 Q306.8804,442.8906 306.6929,442.7031 Q306.3647,442.3281 305.7554,442.1094 Q305.146,441.8906 304.521,441.8906 Q303.7554,441.8906 303.1147,442.2188 Q302.4897,442.5469 301.9897,443.2969 Q301.5054,444.0469 301.5054,445.0781 L301.5054,446.1719 Q301.5054,447.4063 302.396,448.2344 Q303.2866,449.0469 304.8804,449.0469 Q305.8179,449.0469 306.4741,448.7969 Q306.8647,448.6406 307.2866,448.2031 Q307.5522,447.9375 307.6929,447.8594 Q307.8491,447.7813 308.0522,447.7813 Q308.3804,447.7813 308.6304,448.0469 Q308.896,448.2969 308.896,448.6406 Q308.896,448.9844 308.5522,449.3906 Q308.0522,449.9688 307.2554,450.2969 Q306.1772,450.75 304.8804,450.75 Q303.3647,450.75 302.1616,450.125 Q301.1772,449.625 300.4897,448.5625 Q299.8022,447.4844 299.8022,446.2031 L299.8022,445.0469 Q299.8022,443.7188 300.4116,442.5781 Q301.0366,441.4219 302.1304,440.8125 Q303.2241,440.1875 304.4585,440.1875 Q305.1929,440.1875 305.8335,440.3594 Q306.4897,440.5156 307.0366,440.875 Z " fill="#000000"/><text fill="#000000" font-family="sans-serif" font-size="14" lengthAdjust="spacing" textLength="55.2549" x="324.771" y="450.7969">Consulta</text><line style="stroke:#181818;stroke-width:0.5;" x1="8" x2="664.2969" y1="461" y2="461"/><text fill="#000000" font-family="sans-serif" font-size="14" lengthAdjust="spacing" textLength="135.4063" x="13" y="480.1074">-dataConsulta : String</text><text fill="#000000" font-family="sans-serif" font-size="14" lengthAdjust="spacing" textLength="96.4824" x="13" y="498.7285">-horario : String</text><line style="stroke:#181818;stroke-width:0.5;" x1="8" x2="664.2969" y1="506.2422" y2="506.2422"/><text fill="#000000" font-family="sans-serif" font-size="14" lengthAdjust="spacing" textLength="646.2969" x="13" y="525.3496">+Consulta(String dataConsulta, String horario, Medico medico, Paciente paciente, Prioridade prioridade)</text></g><!--class RegistroConsulta--><g id="elem_RegistroConsulta"><rect codeLine="48" fill="#F1F1F1" height="103.8633" id="RegistroConsulta" rx="2.5" ry="2.5" style="stroke:#181818;stroke-width:0.5;" width="379.6777" x="225" y="612"/><ellipse cx="356.896" cy="628" fill="#ADD1B2" rx="11" ry="11" style="stroke:#181818;stroke-width:1.0;"/><path d="M359.6616,623.875 Q359.8179,623.6563 360.0054,623.5469 Q360.1929,623.4375 360.4116,623.4375 Q360.7866,623.4375 361.021,623.7031 Q361.2554,623.9531 361.2554,624.5625 L361.2554,626.0156 Q361.2554,626.625 361.021,626.8906 Q360.7866,627.1563 360.4116,627.1563 Q360.0679,627.1563 359.8647,626.9531 Q359.6616,626.7656 359.5522,626.25 Q359.5054,625.8906 359.3179,625.7031 Q358.9897,625.3281 358.3804,625.1094 Q357.771,624.8906 357.146,624.8906 Q356.3804,624.8906 355.7397,625.2188 Q355.1147,625.5469 354.6147,626.2969 Q354.1304,627.0469 354.1304,628.0781 L354.1304,629.1719 Q354.1304,630.4063 355.021,631.2344 Q355.9116,632.0469 357.5054,632.0469 Q358.4429,632.0469 359.0991,631.7969 Q359.4897,631.6406 359.9116,631.2031 Q360.1772,630.9375 360.3179,630.8594 Q360.4741,630.7813 360.6772,630.7813 Q361.0054,630.7813 361.2554,631.0469 Q361.521,631.2969 361.521,631.6406 Q361.521,631.9844 361.1772,632.3906 Q360.6772,632.9688 359.8804,633.2969 Q358.8022,633.75 357.5054,633.75 Q355.9897,633.75 354.7866,633.125 Q353.8022,632.625 353.1147,631.5625 Q352.4272,630.4844 352.4272,629.2031 L352.4272,628.0469 Q352.4272,626.7188 353.0366,625.5781 Q353.6616,624.4219 354.7554,623.8125 Q355.8491,623.1875 357.0835,623.1875 Q357.8179,623.1875 358.4585,623.3594 Q359.1147,623.5156 359.6616,623.875 Z " fill="#000000"/><text fill="#000000" font-family="sans-serif" font-size="14" lengthAdjust="spacing" textLength="107.3857" x="377.396" y="633.7969">RegistroConsulta</text><line style="stroke:#181818;stroke-width:0.5;" x1="226" x2="603.6777" y1="644" y2="644"/><text fill="#000000" font-family="sans-serif" font-size="14" lengthAdjust="spacing" textLength="112.8203" x="231" y="663.1074">-descricao : String</text><line style="stroke:#181818;stroke-width:0.5;" x1="226" x2="603.6777" y1="670.6211" y2="670.6211"/><text fill="#000000" font-family="sans-serif" font-size="14" lengthAdjust="spacing" textLength="344.333" x="231" y="689.7285">+RegistroConsulta(Consulta consulta, String descricao)</text><text fill="#000000" font-family="sans-serif" font-size="14" lengthAdjust="spacing" textLength="367.6777" x="231" y="708.3496">+adicionarMedicamento(Medicamento medicamento) : void</text></g><!--class Medicamento--><g id="elem_Medicamento"><rect codeLine="54" fill="#F1F1F1" height="103.8633" id="Medicamento" rx="2.5" ry="2.5" style="stroke:#181818;stroke-width:0.5;" width="298.7471" x="265.5" y="941"/><ellipse cx="368.603" cy="957" fill="#ADD1B2" rx="11" ry="11" style="stroke:#181818;stroke-width:1.0;"/><path d="M371.3687,952.875 Q371.5249,952.6563 371.7124,952.5469 Q371.8999,952.4375 372.1187,952.4375 Q372.4937,952.4375 372.728,952.7031 Q372.9624,952.9531 372.9624,953.5625 L372.9624,955.0156 Q372.9624,955.625 372.728,955.8906 Q372.4937,956.1563 372.1187,956.1563 Q371.7749,956.1563 371.5718,955.9531 Q371.3687,955.7656 371.2593,955.25 Q371.2124,954.8906 371.0249,954.7031 Q370.6968,954.3281 370.0874,954.1094 Q369.478,953.8906 368.853,953.8906 Q368.0874,953.8906 367.4468,954.2188 Q366.8218,954.5469 366.3218,955.2969 Q365.8374,956.0469 365.8374,957.0781 L365.8374,958.1719 Q365.8374,959.4063 366.728,960.2344 Q367.6187,961.0469 369.2124,961.0469 Q370.1499,961.0469 370.8062,960.7969 Q371.1968,960.6406 371.6187,960.2031 Q371.8843,959.9375 372.0249,959.8594 Q372.1812,959.7813 372.3843,959.7813 Q372.7124,959.7813 372.9624,960.0469 Q373.228,960.2969 373.228,960.6406 Q373.228,960.9844 372.8843,961.3906 Q372.3843,961.9688 371.5874,962.2969 Q370.5093,962.75 369.2124,962.75 Q367.6968,962.75 366.4937,962.125 Q365.5093,961.625 364.8218,960.5625 Q364.1343,959.4844 364.1343,958.2031 L364.1343,957.0469 Q364.1343,955.7188 364.7437,954.5781 Q365.3687,953.4219 366.4624,952.8125 Q367.5562,952.1875 368.7905,952.1875 Q369.5249,952.1875 370.1655,952.3594 Q370.8218,952.5156 371.3687,952.875 Z " fill="#000000"/><text fill="#000000" font-family="sans-serif" font-size="14" lengthAdjust="spacing" textLength="84.041" x="389.103" y="962.7969">Medicamento</text><line style="stroke:#181818;stroke-width:0.5;" x1="266.5" x2="563.2471" y1="973" y2="973"/><text fill="#000000" font-family="sans-serif" font-size="14" lengthAdjust="spacing" textLength="87.9238" x="271.5" y="992.1074">-nome : String</text><text fill="#000000" font-family="sans-serif" font-size="14" lengthAdjust="spacing" textLength="114.3857" x="271.5" y="1010.7285">-fabricante : String</text><line style="stroke:#181818;stroke-width:0.5;" x1="266.5" x2="563.2471" y1="1018.2422" y2="1018.2422"/><text fill="#000000" font-family="sans-serif" font-size="14" lengthAdjust="spacing" textLength="286.7471" x="271.5" y="1037.3496">+Medicamento(String nome, String fabricante)</text></g><!--class HistoricoMedicacao--><g id="elem_HistoricoMedicacao"><rect codeLine="60" fill="#F1F1F1" height="85.2422" id="HistoricoMedicacao" rx="2.5" ry="2.5" style="stroke:#181818;stroke-width:0.5;" width="652.7803" x="452.5" y="795"/><ellipse cx="713.561" cy="811" fill="#ADD1B2" rx="11" ry="11" style="stroke:#181818;stroke-width:1.0;"/><path d="M716.3267,806.875 Q716.4829,806.6563 716.6704,806.5469 Q716.8579,806.4375 717.0767,806.4375 Q717.4517,806.4375 717.686,806.7031 Q717.9204,806.9531 717.9204,807.5625 L717.9204,809.0156 Q717.9204,809.625 717.686,809.8906 Q717.4517,810.1563 717.0767,810.1563 Q716.7329,810.1563 716.5298,809.9531 Q716.3267,809.7656 716.2173,809.25 Q716.1704,808.8906 715.9829,808.7031 Q715.6548,808.3281 715.0454,808.1094 Q714.436,807.8906 713.811,807.8906 Q713.0454,807.8906 712.4048,808.2188 Q711.7798,808.5469 711.2798,809.2969 Q710.7954,810.0469 710.7954,811.0781 L710.7954,812.1719 Q710.7954,813.4063 711.686,814.2344 Q712.5767,815.0469 714.1704,815.0469 Q715.1079,815.0469 715.7642,814.7969 Q716.1548,814.6406 716.5767,814.2031 Q716.8423,813.9375 716.9829,813.8594 Q717.1392,813.7813 717.3423,813.7813 Q717.6704,813.7813 717.9204,814.0469 Q718.186,814.2969 718.186,814.6406 Q718.186,814.9844 717.8423,815.3906 Q717.3423,815.9688 716.5454,816.2969 Q715.4673,816.75 714.1704,816.75 Q712.6548,816.75 711.4517,816.125 Q710.4673,815.625 709.7798,814.5625 Q709.0923,813.4844 709.0923,812.2031 L709.0923,811.0469 Q709.0923,809.7188 709.7017,808.5781 Q710.3267,807.4219 711.4204,806.8125 Q712.5142,806.1875 713.7485,806.1875 Q714.4829,806.1875 715.1235,806.3594 Q715.7798,806.5156 716.3267,806.875 Z " fill="#000000"/><text fill="#000000" font-family="sans-serif" font-size="14" lengthAdjust="spacing" textLength="122.1582" x="734.061" y="816.7969">HistoricoMedicacao</text><line style="stroke:#181818;stroke-width:0.5;" x1="453.5" x2="1104.2803" y1="827" y2="827"/><text fill="#000000" font-family="sans-serif" font-size="14" lengthAdjust="spacing" textLength="112.8203" x="458.5" y="846.1074">-descricao : String</text><line style="stroke:#181818;stroke-width:0.5;" x1="453.5" x2="1104.2803" y1="853.6211" y2="853.6211"/><text fill="#000000" font-family="sans-serif" font-size="14" lengthAdjust="spacing" textLength="640.7803" x="458.5" y="872.7285">+HistoricoMedicacao(RegistroConsulta registroConsulta, Medicamento medicamento, String descricao)</text></g><!--class MedicamentoIndicadoException--><g id="elem_MedicamentoIndicadoException"><rect codeLine="66" fill="#F1F1F1" height="66.6211" id="MedicamentoIndicadoException" rx="2.5" ry="2.5" style="stroke:#181818;stroke-width:0.5;" width="341.5605" x="903" y="34.5"/><ellipse cx="970.3032" cy="50.5" fill="#ADD1B2" rx="11" ry="11" style="stroke:#181818;stroke-width:1.0;"/><path d="M973.0688,46.375 Q973.2251,46.1563 973.4126,46.0469 Q973.6001,45.9375 973.8188,45.9375 Q974.1938,45.9375 974.4282,46.2031 Q974.6626,46.4531 974.6626,47.0625 L974.6626,48.5156 Q974.6626,49.125 974.4282,49.3906 Q974.1938,49.6563 973.8188,49.6563 Q973.4751,49.6563 973.272,49.4531 Q973.0688,49.2656 972.9595,48.75 Q972.9126,48.3906 972.7251,48.2031 Q972.397,47.8281 971.7876,47.6094 Q971.1782,47.3906 970.5532,47.3906 Q969.7876,47.3906 969.147,47.7188 Q968.522,48.0469 968.022,48.7969 Q967.5376,49.5469 967.5376,50.5781 L967.5376,51.6719 Q967.5376,52.9063 968.4282,53.7344 Q969.3188,54.5469 970.9126,54.5469 Q971.8501,54.5469 972.5063,54.2969 Q972.897,54.1406 973.3188,53.7031 Q973.5845,53.4375 973.7251,53.3594 Q973.8813,53.2813 974.0845,53.2813 Q974.4126,53.2813 974.6626,53.5469 Q974.9282,53.7969 974.9282,54.1406 Q974.9282,54.4844 974.5845,54.8906 Q974.0845,55.4688 973.2876,55.7969 Q972.2095,56.25 970.9126,56.25 Q969.397,56.25 968.1938,55.625 Q967.2095,55.125 966.522,54.0625 Q965.8345,52.9844 965.8345,51.7031 L965.8345,50.5469 Q965.8345,49.2188 966.4438,48.0781 Q967.0688,46.9219 968.1626,46.3125 Q969.2563,45.6875 970.4907,45.6875 Q971.2251,45.6875 971.8657,45.8594 Q972.522,46.0156 973.0688,46.375 Z " fill="#000000"/><text fill="#000000" font-family="sans-serif" font-size="14" lengthAdjust="spacing" textLength="198.4541" x="990.8032" y="56.2969">MedicamentoIndicadoException</text><line style="stroke:#181818;stroke-width:0.5;" x1="904" x2="1243.5605" y1="66.5" y2="66.5"/><line style="stroke:#181818;stroke-width:0.5;" x1="904" x2="1243.5605" y1="74.5" y2="74.5"/><text fill="#000000" font-family="sans-serif" font-size="14" lengthAdjust="spacing" textLength="329.5605" x="909" y="93.6074">+MedicamentoIndicadoException(mensagem: String)</text></g><!--class Prioridade--><g id="elem_Prioridade"><rect codeLine="70" fill="#F1F1F1" height="103.8633" id="Prioridade" rx="2.5" ry="2.5" style="stroke:#181818;stroke-width:0.5;" width="95.8135" x="94" y="612"/><ellipse cx="109" cy="628" fill="#EB937F" rx="11" ry="11" style="stroke:#181818;stroke-width:1.0;"/><path d="M107.8594,628.7969 L107.8594,631.2969 L112.1875,631.2969 L112.1875,630.375 Q112.1875,629.7656 112.4219,629.5 Q112.6719,629.2344 113.0469,629.2344 Q113.4219,629.2344 113.6563,629.5 Q113.8906,629.7656 113.8906,630.375 L113.8906,633 L105.8906,633 Q105.2656,633 105,632.7656 Q104.75,632.5313 104.75,632.1406 Q104.75,631.7656 105.0156,631.5313 Q105.2813,631.2969 105.8906,631.2969 L106.1563,631.2969 L106.1563,624.6406 L105.8906,624.6406 Q105.2656,624.6406 105,624.4063 Q104.75,624.1719 104.75,623.7813 Q104.75,623.4063 105,623.1719 Q105.2656,622.9375 105.8906,622.9375 L113.5156,622.9375 L113.5156,625.5313 Q113.5156,626.1406 113.2813,626.4063 Q113.0625,626.6563 112.6719,626.6563 Q112.2969,626.6563 112.0625,626.4063 Q111.8281,626.1406 111.8281,625.5313 L111.8281,624.6406 L107.8594,624.6406 L107.8594,627.0938 L109.3438,627.0938 Q109.3438,626.4375 109.4688,626.25 Q109.7344,625.8438 110.2031,625.8438 Q110.5781,625.8438 110.8125,626.1094 Q111.0469,626.3594 111.0469,626.9688 L111.0469,628.9375 Q111.0469,629.4844 110.9219,629.6719 Q110.6563,630.0625 110.2031,630.0625 Q109.7344,630.0625 109.4688,629.6563 Q109.3438,629.4688 109.3438,628.7969 L107.8594,628.7969 Z " fill="#000000"/><text fill="#000000" font-family="sans-serif" font-size="14" lengthAdjust="spacing" textLength="63.8135" x="123" y="633.7969">Prioridade</text><line style="stroke:#181818;stroke-width:0.5;" x1="95" x2="188.8135" y1="644" y2="644"/><text fill="#000000" font-family="sans-serif" font-size="14" lengthAdjust="spacing" textLength="35.0137" x="100" y="663.1074">ALTA</text><text fill="#000000" font-family="sans-serif" font-size="14" lengthAdjust="spacing" textLength="44.3379" x="100" y="681.7285">MEDIA</text><text fill="#000000" font-family="sans-serif" font-size="14" lengthAdjust="spacing" textLength="41.2412" x="100" y="700.3496">BAIXA</text><line style="stroke:#181818;stroke-width:0.5;" x1="95" x2="188.8135" y1="707.8633" y2="707.8633"/></g><ellipse cx="415" cy="837.5" fill="#181818" rx="2" ry="2" style="stroke:#181818;stroke-width:1.0;"/><!--reverse link Pessoa to Medico--><g id="link_Pessoa_Medico"><path codeLine="76" d="M631.9629,128.736 C587.6329,149.736 551.77,166.74 502.93,189.89 " fill="none" id="Pessoa-backto-Medico" style="stroke:#181818;stroke-width:1.0;"/><polygon fill="none" points="648.23,121.03,629.3943,123.3137,634.5316,134.1584,648.23,121.03" style="stroke:#181818;stroke-width:1.0;"/></g><!--reverse link Pessoa to Paciente--><g id="link_Pessoa_Paciente"><path codeLine="77" d="M765.7918,146.9206 C768.3118,172.1106 769.45,183.46 771.97,208.69 " fill="none" id="Pessoa-backto-Paciente" style="stroke:#181818;stroke-width:1.0;"/><polygon fill="none" points="764,129.01,759.8216,147.5179,771.762,146.3233,764,129.01" style="stroke:#181818;stroke-width:1.0;"/></g><!--link Paciente to Consulta--><g id="link_Paciente_Consulta"><path codeLine="78" d="M651.04,331.03 C585.62,361.97 506.68,399.29 444.18,428.85 " fill="none" id="Paciente-Consulta" style="stroke:#181818;stroke-width:1.0;"/><text fill="#000000" font-family="sans-serif" font-size="13" lengthAdjust="spacing" textLength="7.23" x="628.1453" y="353.5205">1</text><text fill="#000000" font-family="sans-serif" font-size="13" lengthAdjust="spacing" textLength="78.0444" x="375.4591" y="417.7572">consultas 0..*</text></g><!--link Consulta to Prioridade--><g id="link_Consulta_Prioridade"><path codeLine="79" d="M281.19,533.14 C252.5,559.9 222.087,588.2768 194.467,614.0468 " fill="none" id="Consulta-to-Prioridade" style="stroke:#181818;stroke-width:1.0;"/><polygon fill="#181818" points="190.08,618.14,199.3893,614.9249,193.7358,614.729,193.9317,609.0756,190.08,618.14" style="stroke:#181818;stroke-width:1.0;"/><text fill="#000000" font-family="sans-serif" font-size="13" lengthAdjust="spacing" textLength="35.4199" x="249.6118" y="578.0283">define</text></g><!--link Paciente to Endereco--><g id="link_Paciente_Endereco"><path codeLine="80" d="M793.8215,342.889 C800.6215,373.759 804.9404,393.3902 811.4304,422.8802 " fill="none" id="Paciente-Endereco" style="stroke:#181818;stroke-width:1.0;"/><polygon fill="#181818" points="791.24,331.17,788.6244,337.89,793.8215,342.889,796.4371,336.169,791.24,331.17" style="stroke:#181818;stroke-width:1.0;"/><polygon fill="#181818" points="812.72,428.74,814.6921,419.0906,811.6453,423.8569,806.8791,420.8101,812.72,428.74" style="stroke:#181818;stroke-width:1.0;"/><text fill="#000000" font-family="sans-serif" font-size="13" lengthAdjust="spacing" textLength="37.5781" x="809.6118" y="395.0283">possui</text><text fill="#000000" font-family="sans-serif" font-size="13" lengthAdjust="spacing" textLength="7.23" x="785.4322" y="353.6776">1</text><text fill="#000000" font-family="sans-serif" font-size="13" lengthAdjust="spacing" textLength="7.23" x="803.7214" y="417.6324">1</text></g><!--link Endereco to Cidade--><g id="link_Endereco_Cidade"><path codeLine="81" d="M824,533.38 C824,557.94 824,581.26 824,605.8 " fill="none" id="Endereco-to-Cidade" style="stroke:#181818;stroke-width:1.0;"/><polygon fill="#181818" points="824,611.8,828,602.8,824,606.8,820,602.8,824,611.8" style="stroke:#181818;stroke-width:1.0;"/><text fill="#000000" font-family="sans-serif" font-size="13" lengthAdjust="spacing" textLength="79.4854" x="828.6118" y="578.0283">localizado em</text><text fill="#000000" font-family="sans-serif" font-size="13" lengthAdjust="spacing" textLength="7.23" x="816.5621" y="554.8541">1</text><text fill="#000000" font-family="sans-serif" font-size="13" lengthAdjust="spacing" textLength="7.23" x="816.5274" y="600.7005">1</text></g><!--link Medico to Consulta--><g id="link_Medico_Consulta"><path codeLine="82" d="M336,350.01 C336,376.37 336,405.03 336,428.71 " fill="none" id="Medico-Consulta" style="stroke:#181818;stroke-width:1.0;"/><text fill="#000000" font-family="sans-serif" font-size="13" lengthAdjust="spacing" textLength="38.2954" x="340.6118" y="395.0283">realiza</text><text fill="#000000" font-family="sans-serif" font-size="13" lengthAdjust="spacing" textLength="7.23" x="328.6895" y="371.6689">1</text><text fill="#000000" font-family="sans-serif" font-size="13" lengthAdjust="spacing" textLength="19.5127" x="315.7379" y="417.5984">0..*</text></g><!--link Consulta to RegistroConsulta--><g id="link_Consulta_RegistroConsulta"><path codeLine="83" d="M363.2304,544.378 C373.9504,568.938 379.54,581.7609 390.25,606.3009 " fill="none" id="Consulta-RegistroConsulta" style="stroke:#181818;stroke-width:1.0;"/><polygon fill="#181818" points="358.43,533.38,357.1642,540.4791,363.2304,544.378,364.4962,537.2789,358.43,533.38" style="stroke:#181818;stroke-width:1.0;"/><polygon fill="#181818" points="392.65,611.8,392.7161,601.9514,390.65,607.2174,385.384,605.1513,392.65,611.8" style="stroke:#181818;stroke-width:1.0;"/><text fill="#000000" font-family="sans-serif" font-size="13" lengthAdjust="spacing" textLength="7.23" x="353.733" y="554.8541">1</text><text fill="#000000" font-family="sans-serif" font-size="13" lengthAdjust="spacing" textLength="7.23" x="382.2135" y="600.7005">1</text></g><!--reverse link RegistroConsulta to apoint23--><g id="link_RegistroConsulta_apoint23"><path d="M415,728.46 C415,775.42 415,826.82 415,835.5 " fill="none" id="RegistroConsulta-backto-apoint23" style="stroke:#181818;stroke-width:1.0;"/><polygon fill="#181818" points="415,716.46,411,722.46,415,728.46,419,722.46,415,716.46" style="stroke:#181818;stroke-width:1.0;"/><polygon fill="#000000" points="420,760.6455,422.9389,751.6004,417.0611,751.6004,420,760.6455" style="stroke:#000000;stroke-width:1.0;"/><text fill="#000000" font-family="sans-serif" font-size="13" lengthAdjust="spacing" textLength="42.6309" x="429" y="761.0283">contem</text><text fill="#000000" font-family="sans-serif" font-size="13" lengthAdjust="spacing" textLength="19.5127" x="394.8931" y="737.9439">0..*</text></g><!--link apoint23 to Medicamento--><g id="link_apoint23_Medicamento"><path d="M415,839.83 C415,848.68 415,900.03 415,940.67 " fill="none" id="apoint23-Medicamento" style="stroke:#181818;stroke-width:1.0;"/><text fill="#000000" font-family="sans-serif" font-size="13" lengthAdjust="spacing" textLength="19.5127" x="394.7749" y="929.553">0..*</text></g><!--link apoint23 to HistoricoMedicacao--><g id="link_apoint23_HistoricoMedicacao"><path d="M417.13,837.5 C428.91,837.5 440.69,837.5 452.47,837.5 " fill="none" id="apoint23-HistoricoMedicacao" style="stroke:#181818;stroke-width:1.0;stroke-dasharray:7.0,7.0;"/></g><!--reverse link Agendavel to Medico--><g id="link_Agendavel_Medico"><path codeLine="86" d="M424.0729,117.1528 C410.2129,141.0628 399.79,159.02 381.93,189.8 " fill="none" id="Agendavel-backto-Medico" style="stroke:#181818;stroke-width:1.0;stroke-dasharray:7.0,7.0;"/><polygon fill="none" points="433.1,101.58,418.882,114.1437,429.2638,120.1618,433.1,101.58" style="stroke:#181818;stroke-width:1.0;"/></g><!--reverse link Agendavel to Paciente--><g id="link_Agendavel_Paciente"><path codeLine="87" d="M520.4428,110.9927 C567.7128,139.9927 622.73,173.74 680.16,208.97 " fill="none" id="Agendavel-backto-Paciente" style="stroke:#181818;stroke-width:1.0;stroke-dasharray:7.0,7.0;"/><polygon fill="none" points="505.1,101.58,517.3052,116.107,523.5803,105.8785,505.1,101.58" style="stroke:#181818;stroke-width:1.0;"/></g><!--SRC=[jLPBRjim4Dtp58GsbHFRIBT6441n3TH00mHD5ztIrDWbAf82AGL5cfwcYnua5ol5dpwqdNHHRpGUp-VnpHlH-ZiJDL64OreHhOkcKMpNDh2bKZom9y1N237HWDeJ2hWuW2Z98rJu9yBcSuc9zQYr5Bgj6f870rDlpF0AFqfMeby8sHRu7hIMn5TOO24vc9W7qrWSl8_M-x7hqcVbpcUJvZwWYvxvAFZ1TanjnLugJgW4dQVzxw1aLCR-e6kWZ5Ii96KAHF4f49T-2aYqHsNx2CK3L6BAC2dUnDs_SlrsCku9PM3c6-amjHhIo2dxFkpLOwkMpF7QSKdjO_OVqMz42Ge6mpJjan5ANbV03VhfeK9sVWPxRENzvrJR9g9rIKT9Q_V3ue6BKBua3OdEIPjlKX75PD8h4EiR34l4hZvt7fQ0syUybq7j3UCoSSeTkexc0FDdE33TA9bY1qqLeoH1ECr89H1nnXh9jbZWn8up7zZk9Cu-iV8-yDm4zsJNTUs8EBRrlksnSVQP0ue-ckCQugXqsHqbhvAKvkG9qshYcECJJ1pZqw1xXzSTFZ1kisOKNlwy_9QukmQ6oHepqNqffKvftFgVDYQzRinauermBYWtRcrU13mSsi81qVAXt5obujENmXftcmzRPzqMswz5b-6laEldnS8hUUGAQaPHrjdx39iViY0qZQ-MouiiBWsAt2uMDqCiAvmPblPCG3QkTj45TaPy1tMXjTIwPHcAJjVOHQxxafMavcfuCjnWu1dosnXGZh7P10KsFkk1Za1C9O8IpVYY5ttzeMPMzhqF7D-WH6uZTStmSdb4ewZ_Pt3zR2ByK2RUGE1V]--></g></svg>