<svg xmlns="http://www.w3.org/2000/svg" xmlns:xlink="http://www.w3.org/1999/xlink" contentStyleType="text/css" height="997px" preserveAspectRatio="none" style="width:726px;height:997px;background:#FFFFFF;" version="1.1" viewBox="0 0 726 997" width="726px" zoomAndPan="magnify"><defs/><g><!--class Medico--><g id="elem_Medico"><rect codeLine="3" fill="#F1F1F1" height="178.3477" id="Medico" rx="2.5" ry="2.5" style="stroke:#181818;stroke-width:0.5;" width="422.457" x="179" y="7"/><ellipse cx="363.4131" cy="23" fill="#ADD1B2" rx="11" ry="11" style="stroke:#181818;stroke-width:1.0;"/><path d="M366.1787,18.875 Q366.335,18.6563 366.5225,18.5469 Q366.71,18.4375 366.9287,18.4375 Q367.3037,18.4375 367.5381,18.7031 Q367.7725,18.9531 367.7725,19.5625 L367.7725,21.0156 Q367.7725,21.625 367.5381,21.8906 Q367.3037,22.1563 366.9287,22.1563 Q366.585,22.1563 366.3818,21.9531 Q366.1787,21.7656 366.0693,21.25 Q366.0225,20.8906 365.835,20.7031 Q365.5068,20.3281 364.8975,20.1094 Q364.2881,19.8906 363.6631,19.8906 Q362.8975,19.8906 362.2568,20.2188 Q361.6318,20.5469 361.1318,21.2969 Q360.6475,22.0469 360.6475,23.0781 L360.6475,24.1719 Q360.6475,25.4063 361.5381,26.2344 Q362.4287,27.0469 364.0225,27.0469 Q364.96,27.0469 365.6162,26.7969 Q366.0068,26.6406 366.4287,26.2031 Q366.6943,25.9375 366.835,25.8594 Q366.9912,25.7813 367.1943,25.7813 Q367.5225,25.7813 367.7725,26.0469 Q368.0381,26.2969 368.0381,26.6406 Q368.0381,26.9844 367.6943,27.3906 Q367.1943,27.9688 366.3975,28.2969 Q365.3193,28.75 364.0225,28.75 Q362.5068,28.75 361.3037,28.125 Q360.3193,27.625 359.6318,26.5625 Q358.9443,25.4844 358.9443,24.2031 L358.9443,23.0469 Q358.9443,21.7188 359.5537,20.5781 Q360.1787,19.4219 361.2725,18.8125 Q362.3662,18.1875 363.6006,18.1875 Q364.335,18.1875 364.9756,18.3594 Q365.6318,18.5156 366.1787,18.875 Z " fill="#000000"/><text fill="#000000" font-family="sans-serif" font-size="14" lengthAdjust="spacing" textLength="45.1309" x="383.9131" y="28.7969">Medico</text><line style="stroke:#181818;stroke-width:0.5;" x1="180" x2="600.457" y1="39" y2="39"/><text fill="#000000" font-family="sans-serif" font-size="14" lengthAdjust="spacing" textLength="87.9238" x="185" y="58.1074">-nome : String</text><text fill="#000000" font-family="sans-serif" font-size="14" lengthAdjust="spacing" textLength="71.5791" x="185" y="76.7285">-cpf : String</text><text fill="#000000" font-family="sans-serif" font-size="14" lengthAdjust="spacing" textLength="138.5234" x="185" y="95.3496">-especialidade : String</text><text fill="#000000" font-family="sans-serif" font-size="14" lengthAdjust="spacing" textLength="76.2275" x="185" y="113.9707">-crm : String</text><line style="stroke:#181818;stroke-width:0.5;" x1="180" x2="600.457" y1="121.4844" y2="121.4844"/><text fill="#000000" font-family="sans-serif" font-size="14" lengthAdjust="spacing" textLength="410.457" x="185" y="140.5918">+Medico(String nome, String cpf, String especialidade, String crm)</text><text fill="#000000" font-family="sans-serif" font-size="14" lengthAdjust="spacing" textLength="278.209" x="185" y="159.2129">+adicionarConsulta(Consulta consulta) : void</text><text fill="#000000" font-family="sans-serif" font-size="14" lengthAdjust="spacing" textLength="60.2998" x="185" y="177.834">+getters()</text></g><!--class Paciente--><g id="elem_Paciente"><rect codeLine="13" fill="#F1F1F1" height="122.4844" id="Paciente" rx="2.5" ry="2.5" style="stroke:#181818;stroke-width:0.5;" width="452.0771" x="7" y="484"/><ellipse cx="201.5474" cy="500" fill="#ADD1B2" rx="11" ry="11" style="stroke:#181818;stroke-width:1.0;"/><path d="M204.313,495.875 Q204.4692,495.6563 204.6567,495.5469 Q204.8442,495.4375 205.063,495.4375 Q205.438,495.4375 205.6724,495.7031 Q205.9067,495.9531 205.9067,496.5625 L205.9067,498.0156 Q205.9067,498.625 205.6724,498.8906 Q205.438,499.1563 205.063,499.1563 Q204.7192,499.1563 204.5161,498.9531 Q204.313,498.7656 204.2036,498.25 Q204.1567,497.8906 203.9692,497.7031 Q203.6411,497.3281 203.0317,497.1094 Q202.4224,496.8906 201.7974,496.8906 Q201.0317,496.8906 200.3911,497.2188 Q199.7661,497.5469 199.2661,498.2969 Q198.7817,499.0469 198.7817,500.0781 L198.7817,501.1719 Q198.7817,502.4063 199.6724,503.2344 Q200.563,504.0469 202.1567,504.0469 Q203.0942,504.0469 203.7505,503.7969 Q204.1411,503.6406 204.563,503.2031 Q204.8286,502.9375 204.9692,502.8594 Q205.1255,502.7813 205.3286,502.7813 Q205.6567,502.7813 205.9067,503.0469 Q206.1724,503.2969 206.1724,503.6406 Q206.1724,503.9844 205.8286,504.3906 Q205.3286,504.9688 204.5317,505.2969 Q203.4536,505.75 202.1567,505.75 Q200.6411,505.75 199.438,505.125 Q198.4536,504.625 197.7661,503.5625 Q197.0786,502.4844 197.0786,501.2031 L197.0786,500.0469 Q197.0786,498.7188 197.688,497.5781 Q198.313,496.4219 199.4067,495.8125 Q200.5005,495.1875 201.7349,495.1875 Q202.4692,495.1875 203.1099,495.3594 Q203.7661,495.5156 204.313,495.875 Z " fill="#000000"/><text fill="#000000" font-family="sans-serif" font-size="14" lengthAdjust="spacing" textLength="54.4824" x="222.0474" y="505.7969">Paciente</text><line style="stroke:#181818;stroke-width:0.5;" x1="8" x2="458.0771" y1="516" y2="516"/><text fill="#000000" font-family="sans-serif" font-size="14" lengthAdjust="spacing" textLength="87.9238" x="13" y="535.1074">-nome : String</text><text fill="#000000" font-family="sans-serif" font-size="14" lengthAdjust="spacing" textLength="71.5791" x="13" y="553.7285">-cpf : String</text><line style="stroke:#181818;stroke-width:0.5;" x1="8" x2="458.0771" y1="561.2422" y2="561.2422"/><text fill="#000000" font-family="sans-serif" font-size="14" lengthAdjust="spacing" textLength="440.0771" x="13" y="580.3496">+Paciente(String nome, String cpf, String ruaEndereco, Cidade cidade)</text><text fill="#000000" font-family="sans-serif" font-size="14" lengthAdjust="spacing" textLength="60.2998" x="13" y="598.9707">+getters()</text></g><!--class Endereco--><g id="elem_Endereco"><rect codeLine="20" fill="#F1F1F1" height="103.8633" id="Endereco" rx="2.5" ry="2.5" style="stroke:#181818;stroke-width:0.5;" width="247.416" x="109.5" y="685"/><ellipse cx="198.9927" cy="701" fill="#ADD1B2" rx="11" ry="11" style="stroke:#181818;stroke-width:1.0;"/><path d="M201.7583,696.875 Q201.9146,696.6563 202.1021,696.5469 Q202.2896,696.4375 202.5083,696.4375 Q202.8833,696.4375 203.1177,696.7031 Q203.3521,696.9531 203.3521,697.5625 L203.3521,699.0156 Q203.3521,699.625 203.1177,699.8906 Q202.8833,700.1563 202.5083,700.1563 Q202.1646,700.1563 201.9614,699.9531 Q201.7583,699.7656 201.6489,699.25 Q201.6021,698.8906 201.4146,698.7031 Q201.0864,698.3281 200.4771,698.1094 Q199.8677,697.8906 199.2427,697.8906 Q198.4771,697.8906 197.8364,698.2188 Q197.2114,698.5469 196.7114,699.2969 Q196.2271,700.0469 196.2271,701.0781 L196.2271,702.1719 Q196.2271,703.4063 197.1177,704.2344 Q198.0083,705.0469 199.6021,705.0469 Q200.5396,705.0469 201.1958,704.7969 Q201.5864,704.6406 202.0083,704.2031 Q202.2739,703.9375 202.4146,703.8594 Q202.5708,703.7813 202.7739,703.7813 Q203.1021,703.7813 203.3521,704.0469 Q203.6177,704.2969 203.6177,704.6406 Q203.6177,704.9844 203.2739,705.3906 Q202.7739,705.9688 201.9771,706.2969 Q200.8989,706.75 199.6021,706.75 Q198.0864,706.75 196.8833,706.125 Q195.8989,705.625 195.2114,704.5625 Q194.5239,703.4844 194.5239,702.2031 L194.5239,701.0469 Q194.5239,699.7188 195.1333,698.5781 Q195.7583,697.4219 196.8521,696.8125 Q197.9458,696.1875 199.1802,696.1875 Q199.9146,696.1875 200.5552,696.3594 Q201.2114,696.5156 201.7583,696.875 Z " fill="#000000"/><text fill="#000000" font-family="sans-serif" font-size="14" lengthAdjust="spacing" textLength="59.9307" x="219.4927" y="706.7969">Endereco</text><line style="stroke:#181818;stroke-width:0.5;" x1="110.5" x2="355.916" y1="717" y2="717"/><text fill="#000000" font-family="sans-serif" font-size="14" lengthAdjust="spacing" textLength="73.1377" x="115.5" y="736.1074">-rua : String</text><line style="stroke:#181818;stroke-width:0.5;" x1="110.5" x2="355.916" y1="743.6211" y2="743.6211"/><text fill="#000000" font-family="sans-serif" font-size="14" lengthAdjust="spacing" textLength="235.416" x="115.5" y="762.7285">+Endereco(String rua, Cidade cidade)</text><text fill="#000000" font-family="sans-serif" font-size="14" lengthAdjust="spacing" textLength="60.2998" x="115.5" y="781.3496">+getters()</text></g><!--class Cidade--><g id="elem_Cidade"><rect codeLine="26" fill="#F1F1F1" height="122.4844" id="Cidade" rx="2.5" ry="2.5" style="stroke:#181818;stroke-width:0.5;" width="209.2646" x="128.5" y="868"/><ellipse cx="206.6997" cy="884" fill="#ADD1B2" rx="11" ry="11" style="stroke:#181818;stroke-width:1.0;"/><path d="M209.4653,879.875 Q209.6216,879.6563 209.8091,879.5469 Q209.9966,879.4375 210.2153,879.4375 Q210.5903,879.4375 210.8247,879.7031 Q211.0591,879.9531 211.0591,880.5625 L211.0591,882.0156 Q211.0591,882.625 210.8247,882.8906 Q210.5903,883.1563 210.2153,883.1563 Q209.8716,883.1563 209.6685,882.9531 Q209.4653,882.7656 209.356,882.25 Q209.3091,881.8906 209.1216,881.7031 Q208.7935,881.3281 208.1841,881.1094 Q207.5747,880.8906 206.9497,880.8906 Q206.1841,880.8906 205.5435,881.2188 Q204.9185,881.5469 204.4185,882.2969 Q203.9341,883.0469 203.9341,884.0781 L203.9341,885.1719 Q203.9341,886.4063 204.8247,887.2344 Q205.7153,888.0469 207.3091,888.0469 Q208.2466,888.0469 208.9028,887.7969 Q209.2935,887.6406 209.7153,887.2031 Q209.981,886.9375 210.1216,886.8594 Q210.2778,886.7813 210.481,886.7813 Q210.8091,886.7813 211.0591,887.0469 Q211.3247,887.2969 211.3247,887.6406 Q211.3247,887.9844 210.981,888.3906 Q210.481,888.9688 209.6841,889.2969 Q208.606,889.75 207.3091,889.75 Q205.7935,889.75 204.5903,889.125 Q203.606,888.625 202.9185,887.5625 Q202.231,886.4844 202.231,885.2031 L202.231,884.0469 Q202.231,882.7188 202.8403,881.5781 Q203.4653,880.4219 204.5591,879.8125 Q205.6528,879.1875 206.8872,879.1875 Q207.6216,879.1875 208.2622,879.3594 Q208.9185,879.5156 209.4653,879.875 Z " fill="#000000"/><text fill="#000000" font-family="sans-serif" font-size="14" lengthAdjust="spacing" textLength="44.3652" x="227.1997" y="889.7969">Cidade</text><line style="stroke:#181818;stroke-width:0.5;" x1="129.5" x2="336.7646" y1="900" y2="900"/><text fill="#000000" font-family="sans-serif" font-size="14" lengthAdjust="spacing" textLength="87.9238" x="134.5" y="919.1074">-nome : String</text><text fill="#000000" font-family="sans-serif" font-size="14" lengthAdjust="spacing" textLength="64.5791" x="134.5" y="937.7285">-uf : String</text><line style="stroke:#181818;stroke-width:0.5;" x1="129.5" x2="336.7646" y1="945.2422" y2="945.2422"/><text fill="#000000" font-family="sans-serif" font-size="14" lengthAdjust="spacing" textLength="197.2646" x="134.5" y="964.3496">+Cidade(String nome, String uf)</text><text fill="#000000" font-family="sans-serif" font-size="14" lengthAdjust="spacing" textLength="60.2998" x="134.5" y="982.9707">+getters()</text></g><!--class Consulta--><g id="elem_Consulta"><rect codeLine="33" fill="#F1F1F1" height="141.1055" id="Consulta" rx="2.5" ry="2.5" style="stroke:#181818;stroke-width:0.5;" width="658.2969" x="61" y="264"/><ellipse cx="358.271" cy="280" fill="#ADD1B2" rx="11" ry="11" style="stroke:#181818;stroke-width:1.0;"/><path d="M361.0366,275.875 Q361.1929,275.6563 361.3804,275.5469 Q361.5679,275.4375 361.7866,275.4375 Q362.1616,275.4375 362.396,275.7031 Q362.6304,275.9531 362.6304,276.5625 L362.6304,278.0156 Q362.6304,278.625 362.396,278.8906 Q362.1616,279.1563 361.7866,279.1563 Q361.4429,279.1563 361.2397,278.9531 Q361.0366,278.7656 360.9272,278.25 Q360.8804,277.8906 360.6929,277.7031 Q360.3647,277.3281 359.7554,277.1094 Q359.146,276.8906 358.521,276.8906 Q357.7554,276.8906 357.1147,277.2188 Q356.4897,277.5469 355.9897,278.2969 Q355.5054,279.0469 355.5054,280.0781 L355.5054,281.1719 Q355.5054,282.4063 356.396,283.2344 Q357.2866,284.0469 358.8804,284.0469 Q359.8179,284.0469 360.4741,283.7969 Q360.8647,283.6406 361.2866,283.2031 Q361.5522,282.9375 361.6929,282.8594 Q361.8491,282.7813 362.0522,282.7813 Q362.3804,282.7813 362.6304,283.0469 Q362.896,283.2969 362.896,283.6406 Q362.896,283.9844 362.5522,284.3906 Q362.0522,284.9688 361.2554,285.2969 Q360.1772,285.75 358.8804,285.75 Q357.3647,285.75 356.1616,285.125 Q355.1772,284.625 354.4897,283.5625 Q353.8022,282.4844 353.8022,281.2031 L353.8022,280.0469 Q353.8022,278.7188 354.4116,277.5781 Q355.0366,276.4219 356.1304,275.8125 Q357.2241,275.1875 358.4585,275.1875 Q359.1929,275.1875 359.8335,275.3594 Q360.4897,275.5156 361.0366,275.875 Z " fill="#000000"/><text fill="#000000" font-family="sans-serif" font-size="14" lengthAdjust="spacing" textLength="55.2549" x="378.771" y="285.7969">Consulta</text><line style="stroke:#181818;stroke-width:0.5;" x1="62" x2="718.2969" y1="296" y2="296"/><text fill="#000000" font-family="sans-serif" font-size="14" lengthAdjust="spacing" textLength="135.4063" x="67" y="315.1074">-dataConsulta : String</text><text fill="#000000" font-family="sans-serif" font-size="14" lengthAdjust="spacing" textLength="96.4824" x="67" y="333.7285">-horario : String</text><line style="stroke:#181818;stroke-width:0.5;" x1="62" x2="718.2969" y1="341.2422" y2="341.2422"/><text fill="#000000" font-family="sans-serif" font-size="14" lengthAdjust="spacing" textLength="646.2969" x="67" y="360.3496">+Consulta(String dataConsulta, String horario, Medico medico, Paciente paciente, Prioridade prioridade)</text><text fill="#000000" font-family="sans-serif" font-size="14" lengthAdjust="spacing" textLength="208.9199" x="67" y="378.9707">+setMedico(Medico medico): void</text><text fill="#000000" font-family="sans-serif" font-size="14" lengthAdjust="spacing" textLength="60.2998" x="67" y="397.5918">+getters()</text></g><!--class Prioridade--><g id="elem_Prioridade"><rect codeLine="41" fill="#F1F1F1" height="122.4844" id="Prioridade" rx="2.5" ry="2.5" style="stroke:#181818;stroke-width:0.5;" width="105.3994" x="494.5" y="484"/><ellipse cx="513.8137" cy="500" fill="#EB937F" rx="11" ry="11" style="stroke:#181818;stroke-width:1.0;"/><path d="M512.673,500.7969 L512.673,503.2969 L517.0012,503.2969 L517.0012,502.375 Q517.0012,501.7656 517.2355,501.5 Q517.4855,501.2344 517.8605,501.2344 Q518.2355,501.2344 518.4699,501.5 Q518.7043,501.7656 518.7043,502.375 L518.7043,505 L510.7043,505 Q510.0793,505 509.8137,504.7656 Q509.5637,504.5313 509.5637,504.1406 Q509.5637,503.7656 509.8293,503.5313 Q510.0949,503.2969 510.7043,503.2969 L510.9699,503.2969 L510.9699,496.6406 L510.7043,496.6406 Q510.0793,496.6406 509.8137,496.4063 Q509.5637,496.1719 509.5637,495.7813 Q509.5637,495.4063 509.8137,495.1719 Q510.0793,494.9375 510.7043,494.9375 L518.3293,494.9375 L518.3293,497.5313 Q518.3293,498.1406 518.0949,498.4063 Q517.8762,498.6563 517.4855,498.6563 Q517.1105,498.6563 516.8762,498.4063 Q516.6418,498.1406 516.6418,497.5313 L516.6418,496.6406 L512.673,496.6406 L512.673,499.0938 L514.1574,499.0938 Q514.1574,498.4375 514.2824,498.25 Q514.548,497.8438 515.0168,497.8438 Q515.3918,497.8438 515.6262,498.1094 Q515.8605,498.3594 515.8605,498.9688 L515.8605,500.9375 Q515.8605,501.4844 515.7355,501.6719 Q515.4699,502.0625 515.0168,502.0625 Q514.548,502.0625 514.2824,501.6563 Q514.1574,501.4688 514.1574,500.7969 L512.673,500.7969 Z " fill="#000000"/><text fill="#000000" font-family="sans-serif" font-size="14" lengthAdjust="spacing" textLength="63.8135" x="528.7723" y="505.7969">Prioridade</text><line style="stroke:#181818;stroke-width:0.5;" x1="495.5" x2="598.8994" y1="516" y2="516"/><text fill="#000000" font-family="sans-serif" font-size="14" lengthAdjust="spacing" textLength="93.3994" x="500.5" y="535.1074">&#171;enumeration&#187;</text><text fill="#000000" font-family="sans-serif" font-size="14" lengthAdjust="spacing" textLength="35.0137" x="500.5" y="553.7285">ALTA</text><text fill="#000000" font-family="sans-serif" font-size="14" lengthAdjust="spacing" textLength="44.3379" x="500.5" y="572.3496">MEDIA</text><text fill="#000000" font-family="sans-serif" font-size="14" lengthAdjust="spacing" textLength="41.2412" x="500.5" y="590.9707">BAIXA</text><line style="stroke:#181818;stroke-width:0.5;" x1="495.5" x2="598.8994" y1="598.4844" y2="598.4844"/></g><!--link Medico to Consulta--><g id="link_Medico_Consulta"><path codeLine="48" d="M390,185.06 C390,211.07 390,239.16 390,263.83 " fill="none" id="Medico-Consulta" style="stroke:#181818;stroke-width:1.0;"/><text fill="#000000" font-family="sans-serif" font-size="13" lengthAdjust="spacing" textLength="38.2954" x="391" y="230.0283">realiza</text><text fill="#000000" font-family="sans-serif" font-size="13" lengthAdjust="spacing" textLength="7.23" x="382.6895" y="207.4699">1</text><text fill="#000000" font-family="sans-serif" font-size="13" lengthAdjust="spacing" textLength="74.4326" x="312.1914" y="252.7035">0..* consulas</text></g><!--link Consulta to Paciente--><g id="link_Consulta_Paciente"><path codeLine="49" d="M337.5,405.22 C318.34,430.67 300.4497,454.4273 281.9597,478.9773 " fill="none" id="Consulta-to-Paciente" style="stroke:#181818;stroke-width:1.0;"/><polygon fill="#181818" points="278.35,483.77,286.9597,478.9874,281.3581,479.7761,280.5694,474.1745,278.35,483.77" style="stroke:#181818;stroke-width:1.0;"/><text fill="#000000" font-family="sans-serif" font-size="13" lengthAdjust="spacing" textLength="44.8081" x="313" y="450.0283">envolve</text><text fill="#000000" font-family="sans-serif" font-size="13" lengthAdjust="spacing" textLength="19.5127" x="312.4075" y="427.0557">0..*</text><text fill="#000000" font-family="sans-serif" font-size="13" lengthAdjust="spacing" textLength="7.23" x="276.1977" y="472.7246">1</text></g><!--link Consulta to Prioridade--><g id="link_Consulta_Prioridade"><path codeLine="50" d="M442.5,405.22 C461.66,430.67 479.5503,454.4273 498.0403,478.9773 " fill="none" id="Consulta-to-Prioridade" style="stroke:#181818;stroke-width:1.0;"/><polygon fill="#181818" points="501.65,483.77,499.4306,474.1745,498.6419,479.7761,493.0403,478.9874,501.65,483.77" style="stroke:#181818;stroke-width:1.0;"/><text fill="#000000" font-family="sans-serif" font-size="13" lengthAdjust="spacing" textLength="35.4199" x="478" y="450.0283">define</text></g><!--link Paciente to Endereco--><g id="link_Paciente_Endereco"><path codeLine="51" d="M233,618.12 C233,643.45 233,654.62 233,678.9 " fill="none" id="Paciente-Endereco" style="stroke:#181818;stroke-width:1.0;"/><polygon fill="#181818" points="233,606.12,229,612.12,233,618.12,237,612.12,233,606.12" style="stroke:#181818;stroke-width:1.0;"/><polygon fill="#181818" points="233,684.9,237,675.9,233,679.9,229,675.9,233,684.9" style="stroke:#181818;stroke-width:1.0;"/><text fill="#000000" font-family="sans-serif" font-size="13" lengthAdjust="spacing" textLength="37.5781" x="234" y="651.0283">possui</text><text fill="#000000" font-family="sans-serif" font-size="13" lengthAdjust="spacing" textLength="7.23" x="225.5828" y="628.6215">1</text><text fill="#000000" font-family="sans-serif" font-size="13" lengthAdjust="spacing" textLength="7.23" x="225.5172" y="673.8139">1</text></g><!--link Endereco to Cidade--><g id="link_Endereco_Cidade"><path codeLine="52" d="M233,789.17 C233,813.46 233,836.64 233,861.98 " fill="none" id="Endereco-to-Cidade" style="stroke:#181818;stroke-width:1.0;"/><polygon fill="#181818" points="233,867.98,237,858.98,233,862.98,229,858.98,233,867.98" style="stroke:#181818;stroke-width:1.0;"/><text fill="#000000" font-family="sans-serif" font-size="13" lengthAdjust="spacing" textLength="79.4854" x="234" y="834.0283">localizado em</text><text fill="#000000" font-family="sans-serif" font-size="13" lengthAdjust="spacing" textLength="7.23" x="225.5396" y="810.9991">1</text><text fill="#000000" font-family="sans-serif" font-size="13" lengthAdjust="spacing" textLength="7.23" x="225.5713" y="856.5238">1</text></g><!--SRC=[bLFBRi8m4BpdAooV20H4hnL2IYa7f29LeeTUNNkXLXCxiXqELFttEduHeD0sbwmcipCxzaP_SD4GHMf4Aw9rQOpYRws15PLYmm-0fbdclg0rC4ub-ioGVSP8o1hGFTfOljW5Z3RRSmXq0vIJYZF2BlcgFeL6mMNWCMTI14AddkeJsID3rNdG8LQ6Iq7KGWhTLeOCOe5eA7BhlPUSXOuT60DA3_BiAqP-9fI3CF2_qAFKzsiCrPAbOA20oW8j_1bHzyglJnKxqbHMvNo2o1aSZVvk47YtGhSNcNtJZudRxIspU2tHZX534dXc-ouLKLnUUCSx3ePzYJH5w2tY8jVkLHmlkGc5XInF-KDeKXapQ31XIK-4yklB1AAj-ve-wMpMuQ28iNiwdpkiV7efNR5UFgvyzL2kNijE9RZXEup6OuIdayamh3BH6FLE32kmFyQ1u2o1ZjtrpLr_Ycp98FQosaEFtB5wqreEWoqNbfBwEf5XL4lxQ9cDrBhbE4kO7zSJ5qcmajIDo2I26dy3]--></g></svg>